<?xml version="1.0" encoding="UTF-8" standalone="no"?>
<!-- Created with Inkscape (http://www.inkscape.org/) -->

<svg
   xmlns:dc="http://purl.org/dc/elements/1.1/"
   xmlns:cc="http://creativecommons.org/ns#"
   xmlns:rdf="http://www.w3.org/1999/02/22-rdf-syntax-ns#"
   xmlns:svg="http://www.w3.org/2000/svg"
   xmlns="http://www.w3.org/2000/svg"
   xmlns:xlink="http://www.w3.org/1999/xlink"
   xmlns:sodipodi="http://sodipodi.sourceforge.net/DTD/sodipodi-0.dtd"
   xmlns:inkscape="http://www.inkscape.org/namespaces/inkscape"
   width="800px"
   height="600px"
   id="svg2993"
   version="1.1"
   inkscape:version="0.48.4 r9939"
   sodipodi:docname="contador_animales_pequenios.svg">
  <defs
     id="defs2995">
    <marker
       inkscape:stockid="Arrow1Lend"
       orient="auto"
       refY="0.0"
       refX="0.0"
       id="Arrow1Lend"
       style="overflow:visible;">
      <path
         id="path4222"
         d="M 0.0,0.0 L 5.0,-5.0 L -12.5,0.0 L 5.0,5.0 L 0.0,0.0 z "
         style="fill-rule:evenodd;stroke:#000000;stroke-width:1.0pt;"
         transform="scale(0.8) rotate(180) translate(12.5,0)" />
    </marker>
    <marker
       inkscape:stockid="Arrow1Lstart"
       orient="auto"
       refY="0.0"
       refX="0.0"
       id="Arrow1Lstart"
       style="overflow:visible">
      <path
         id="path4219"
         d="M 0.0,0.0 L 5.0,-5.0 L -12.5,0.0 L 5.0,5.0 L 0.0,0.0 z "
         style="fill-rule:evenodd;stroke:#000000;stroke-width:1.0pt"
         transform="scale(0.8) translate(12.5,0)" />
    </marker>
    <radialGradient
       r="295.71429"
       fy="320.60046"
       fx="346.45819"
       cy="320.60046"
       cx="346.45819"
       gradientTransform="matrix(0.25989462,1.1032563,-1.1362109,0.26765682,626.40758,-105.45533)"
       gradientUnits="userSpaceOnUse"
       id="radialGradient3949"
       xlink:href="#linearGradient3759"
       inkscape:collect="always" />
    <linearGradient
       y2="1073.2126"
       x2="1109.4709"
       y1="175.72487"
       x1="1119.1514"
       gradientUnits="userSpaceOnUse"
       id="linearGradient3947"
       xlink:href="#linearGradient3828"
       inkscape:collect="always" />
    <linearGradient
       y2="1073.2126"
       x2="1109.4709"
       y1="175.72487"
       x1="1119.1514"
       gradientUnits="userSpaceOnUse"
       id="linearGradient3935"
       xlink:href="#linearGradient3828"
       inkscape:collect="always" />
    <radialGradient
       r="295.71429"
       fy="320.60046"
       fx="346.45819"
       cy="320.60046"
       cx="346.45819"
       gradientTransform="matrix(0.25989462,1.1032563,-1.1362109,0.26765682,626.40758,-105.45533)"
       gradientUnits="userSpaceOnUse"
       id="radialGradient3852"
       xlink:href="#linearGradient3759"
       inkscape:collect="always" />
    <linearGradient
       y2="1111.2246"
       x2="1044.4408"
       y1="175.72487"
       x1="1119.1514"
       gradientUnits="userSpaceOnUse"
       id="linearGradient3850"
       xlink:href="#linearGradient3828"
       inkscape:collect="always" />
    <linearGradient
       y2="1111.2246"
       x2="1044.4408"
       y1="175.72487"
       x1="1119.1514"
       gradientUnits="userSpaceOnUse"
       id="linearGradient3826"
       xlink:href="#linearGradient3828"
       inkscape:collect="always" />
    <radialGradient
       r="295.71429"
       fy="320.60046"
       fx="346.45819"
       cy="320.60046"
       cx="346.45819"
       gradientTransform="matrix(0.25989462,1.1032563,-1.1362109,0.26765682,626.40758,-105.45533)"
       gradientUnits="userSpaceOnUse"
       id="radialGradient3816"
       xlink:href="#linearGradient3759"
       inkscape:collect="always" />
    <radialGradient
       r="295.71429"
       fy="328.20911"
       fx="335.12097"
       cy="328.20911"
       cx="335.12097"
       gradientTransform="matrix(0.55645255,0.77917049,-0.74436749,0.53159705,398.03749,-77.792519)"
       gradientUnits="userSpaceOnUse"
       id="radialGradient3806"
       xlink:href="#linearGradient3759"
       inkscape:collect="always" />
    <linearGradient
       gradientUnits="userSpaceOnUse"
       y2="1043.8839"
       x2="1162.078"
       y1="136.89635"
       x1="1105.974"
       id="linearGradient3802"
       xlink:href="#linearGradient3796"
       inkscape:collect="always" />
    <radialGradient
       gradientTransform="matrix(0.55645255,0.77917049,-0.74436749,0.53159705,398.03749,-77.792519)"
       gradientUnits="userSpaceOnUse"
       r="295.71429"
       fy="328.20911"
       fx="335.12097"
       cy="328.20911"
       cx="335.12097"
       id="radialGradient3765"
       xlink:href="#linearGradient3759"
       inkscape:collect="always" />
    <linearGradient
       id="linearGradient3759"
       inkscape:collect="always">
      <stop
         id="stop3761"
         offset="0"
         style="stop-color:#00ffff;stop-opacity:1;" />
      <stop
         id="stop3763"
         offset="1"
         style="stop-color:#0000ff;stop-opacity:1" />
    </linearGradient>
    <linearGradient
       id="linearGradient3796"
       inkscape:collect="always">
      <stop
         id="stop3798"
         offset="0"
         style="stop-color:#1a1a1a;stop-opacity:1;" />
      <stop
         id="stop3800"
         offset="1"
         style="stop-color:#1a1a1a;stop-opacity:0;" />
    </linearGradient>
    <linearGradient
       inkscape:collect="always"
       id="linearGradient3828">
      <stop
         style="stop-color:#000000;stop-opacity:1"
         offset="0"
         id="stop3830" />
      <stop
         style="stop-color:#1a1a1a;stop-opacity:0;"
         offset="1"
         id="stop3832" />
    </linearGradient>
    <linearGradient
       inkscape:collect="always"
       xlink:href="#linearGradient3828"
       id="linearGradient5217"
       gradientUnits="userSpaceOnUse"
       x1="1119.1514"
       y1="175.72487"
       x2="1109.4709"
       y2="1073.2126" />
    <radialGradient
       inkscape:collect="always"
       xlink:href="#linearGradient3759"
       id="radialGradient5219"
       gradientUnits="userSpaceOnUse"
       gradientTransform="matrix(0.25989462,1.1032563,-1.1362109,0.26765682,626.40758,-105.45533)"
       cx="346.45819"
       cy="320.60046"
       fx="346.45819"
       fy="320.60046"
       r="295.71429" />
    <linearGradient
       inkscape:collect="always"
       xlink:href="#linearGradient3828"
       id="linearGradient5223"
       gradientUnits="userSpaceOnUse"
       x1="1119.1514"
       y1="175.72487"
       x2="1109.4709"
       y2="1073.2126" />
    <radialGradient
       inkscape:collect="always"
       xlink:href="#linearGradient3759"
       id="radialGradient5225"
       gradientUnits="userSpaceOnUse"
       gradientTransform="matrix(0.25989462,1.1032563,-1.1362109,0.26765682,626.40758,-105.45533)"
       cx="346.45819"
       cy="320.60046"
       fx="346.45819"
       fy="320.60046"
       r="295.71429" />
  </defs>
  <sodipodi:namedview
     id="base"
     pagecolor="#ffffff"
     bordercolor="#666666"
     borderopacity="1.0"
     inkscape:pageopacity="0.0"
     inkscape:pageshadow="2"
     inkscape:zoom="0.9"
     inkscape:cx="400"
     inkscape:cy="255.55556"
     inkscape:current-layer="layer1"
     inkscape:document-units="px"
     showgrid="false"
     inkscape:window-width="1366"
     inkscape:window-height="718"
     inkscape:window-x="0"
     inkscape:window-y="0"
     inkscape:window-maximized="1" />
  <metadata
     id="metadata2998">
    <rdf:RDF>
      <cc:Work
         rdf:about="">
        <dc:format>image/svg+xml</dc:format>
        <dc:type
           rdf:resource="http://purl.org/dc/dcmitype/StillImage" />
        <dc:title />
      </cc:Work>
    </rdf:RDF>
  </metadata>
  <g
     inkscape:groupmode="layer"
     id="layer4"
     inkscape:label="fondo"
     sodipodi:insensitive="true">
    <rect
       style="fill:#f4d7d7;fill-opacity:1;fill-rule:nonzero;stroke:none"
       id="rect3130"
       width="800"
       height="600"
       x="-5.0862632e-06"
       y="-1.1111112" />
    <path
       style="fill:#f98298;fill-opacity:0.39647576;stroke:#f98298;stroke-width:0.66801172"
       inkscape:connector-curvature="0"
       id="svg_4"
       d="m 27.302727,105.76368 c 24.861138,22.12413 40.827007,4.78976 40.827007,4.78976 0,0 -10.263773,-9.35143 -10.263773,-9.35143 0,0 12.544612,-7.070604 12.544612,-7.070604 0,0 -5.474013,-6.386347 -14.597366,-4.78976 -9.123354,1.596586 -28.51048,16.422034 -28.51048,16.422034 z" />
    <path
       style="fill:#f98298;fill-opacity:0.39647576;stroke:#f98298;stroke-width:0.66801172"
       inkscape:connector-curvature="0"
       id="svg_6"
       d="M 18.899314,45.006495 C 41.935782,80.815658 72.499016,68.042963 64.972249,52.989429 57.445483,37.935896 18.899314,45.006495 18.899314,45.006495 z" />
    <path
       style="fill:#f98298;fill-opacity:0.39647576;stroke:#f98298;stroke-width:0.66801172"
       inkscape:connector-curvature="0"
       id="svg_7"
       d="m 55.392728,17.40835 c 16.65012,32.159822 45.388682,18.246707 49.950362,9.351438 4.56168,-8.89527 -7.0706,-12.088444 -13.913115,-12.088444 -6.842515,0 -36.037247,2.737006 -36.037247,2.737006 z" />
    <path
       style="fill:#f98298;fill-opacity:0.39647576;stroke:#f98298;stroke-width:0.66801172"
       inkscape:connector-curvature="0"
       id="svg_8"
       d="m 81.62237,57.094938 c -12.772695,26.913893 7.298683,32.387906 7.982934,34.212576 0.684252,1.824671 3.877425,-7.75485 4.333593,-11.632276 0.456168,-3.877425 1.824671,16.878205 1.824671,16.878205 0,0 17.790542,-8.89527 8.439102,-21.896049 C 94.851232,61.656615 81.62237,57.094938 81.62237,57.094938 z" />
    <path
       d="m 49.302727,201.76368 c 24.861138,22.12413 40.827007,4.78976 40.827007,4.78976 0,0 -10.263773,-9.35144 -10.263773,-9.35144 0,0 12.544612,-7.07059 12.544612,-7.07059 0,0 -5.474013,-6.38635 -14.597366,-4.78976 -9.123354,1.59658 -28.51048,16.42203 -28.51048,16.42203 z"
       id="path3924"
       inkscape:connector-curvature="0"
       style="fill:#f98298;fill-opacity:0.39647576;stroke:#f98298;stroke-width:0.66801172" />
    <path
       d="m 42.899314,143.00649 c 23.036468,35.80917 53.599702,23.03647 46.072935,7.98294 -7.526766,-15.05353 -46.072935,-7.98294 -46.072935,-7.98294 z"
       id="path3926"
       inkscape:connector-curvature="0"
       style="fill:#f98298;fill-opacity:0.39647576;stroke:#f98298;stroke-width:0.66801172" />
    <path
       d="m 79.392728,115.40835 c 16.65012,32.15982 45.388682,18.24671 49.950362,9.35144 4.56168,-8.89527 -7.0706,-12.08845 -13.91312,-12.08845 -6.84251,0 -36.037242,2.73701 -36.037242,2.73701 z"
       id="path3928"
       inkscape:connector-curvature="0"
       style="fill:#f98298;fill-opacity:0.39647576;stroke:#f98298;stroke-width:0.66801172" />
    <path
       d="m 105.62237,155.09494 c -12.772695,26.91389 7.29868,32.3879 7.98293,34.21257 0.68426,1.82467 3.87743,-7.75485 4.3336,-11.63227 0.45617,-3.87743 1.82467,16.8782 1.82467,16.8782 0,0 17.79054,-8.89527 8.4391,-21.89605 -9.35144,-13.00078 -22.5803,-17.56245 -22.5803,-17.56245 z"
       id="path3930"
       inkscape:connector-curvature="0"
       style="fill:#f98298;fill-opacity:0.39647576;stroke:#f98298;stroke-width:0.66801172" />
    <path
       style="fill:#f98298;fill-opacity:0.39647576;stroke:#f98298;stroke-width:0.66801172"
       inkscape:connector-curvature="0"
       id="path3934"
       d="m 63.302727,291.76368 c 24.861138,22.12413 40.827003,4.78976 40.827003,4.78976 0,0 -10.263769,-9.35144 -10.263769,-9.35144 0,0 12.544609,-7.07059 12.544609,-7.07059 0,0 -5.47401,-6.38635 -14.597363,-4.78976 -9.123354,1.59658 -28.51048,16.42203 -28.51048,16.42203 z" />
    <path
       style="fill:#f98298;fill-opacity:0.39647576;stroke:#f98298;stroke-width:0.66801172"
       inkscape:connector-curvature="0"
       id="path3936"
       d="m 60.899314,237.00649 c 23.036468,35.80917 53.599706,23.03647 46.072936,7.98294 -7.52677,-15.05353 -46.072936,-7.98294 -46.072936,-7.98294 z" />
    <path
       style="fill:#f98298;fill-opacity:0.39647576;stroke:#f98298;stroke-width:0.66801172"
       inkscape:connector-curvature="0"
       id="path3938"
       d="m 101.39273,217.40835 c 16.65012,32.15982 45.38868,18.24671 49.95036,9.35144 4.56168,-8.89527 -7.0706,-12.08845 -13.91312,-12.08845 -6.84251,0 -36.03724,2.73701 -36.03724,2.73701 z" />
    <path
       style="fill:#f98298;fill-opacity:0.39647576;stroke:#f98298;stroke-width:0.66801172"
       inkscape:connector-curvature="0"
       id="path3940"
       d="m 123.62237,301.09494 c -12.77269,26.91389 7.29868,32.3879 7.98293,34.21257 0.68426,1.82467 3.87743,-7.75485 4.3336,-11.63227 0.45616,-3.87743 1.82467,16.8782 1.82467,16.8782 0,0 17.79054,-8.89527 8.4391,-21.89605 -9.35144,-13.00078 -22.5803,-17.56245 -22.5803,-17.56245 z" />
    <path
       d="m 49.302727,401.76368 c 24.861138,22.12413 40.827007,4.78976 40.827007,4.78976 0,0 -10.263773,-9.35144 -10.263773,-9.35144 0,0 12.544612,-7.07059 12.544612,-7.07059 0,0 -5.474013,-6.38635 -14.597366,-4.78976 -9.123354,1.59658 -28.51048,16.42203 -28.51048,16.42203 z"
       id="path3966"
       inkscape:connector-curvature="0"
       style="fill:#f98298;fill-opacity:0.39647576;stroke:#f98298;stroke-width:0.66801172" />
    <path
       d="m 26.899314,355.00649 c 23.036468,35.80917 53.599702,23.03647 46.072935,7.98294 -7.526766,-15.05353 -46.072935,-7.98294 -46.072935,-7.98294 z"
       id="path3968"
       inkscape:connector-curvature="0"
       style="fill:#f98298;fill-opacity:0.39647576;stroke:#f98298;stroke-width:0.66801172" />
    <path
       d="m 55.392728,323.40835 c 16.65012,32.15982 45.388682,18.24671 49.950362,9.35144 4.56168,-8.89527 -7.0706,-12.08845 -13.913115,-12.08845 -6.842515,0 -36.037247,2.73701 -36.037247,2.73701 z"
       id="path3971"
       inkscape:connector-curvature="0"
       style="fill:#f98298;fill-opacity:0.39647576;stroke:#f98298;stroke-width:0.66801172" />
    <path
       d="m 109.62237,351.09494 c -12.772695,26.91389 7.29868,32.3879 7.98293,34.21257 0.68426,1.82467 3.87743,-7.75485 4.3336,-11.63227 0.45617,-3.87743 1.82467,16.8782 1.82467,16.8782 0,0 17.79054,-8.89527 8.4391,-21.89605 -9.35144,-13.00078 -22.5803,-17.56245 -22.5803,-17.56245 z"
       id="path3974"
       inkscape:connector-curvature="0"
       style="fill:#f98298;fill-opacity:0.39647576;stroke:#f98298;stroke-width:0.66801172" />
    <path
       style="fill:#f98298;fill-opacity:0.39647576;stroke:#f98298;stroke-width:0.66801172"
       inkscape:connector-curvature="0"
       id="path3988"
       d="m 77.302727,477.76368 c 24.861143,22.12413 40.827003,4.78976 40.827003,4.78976 0,0 -10.26377,-9.35144 -10.26377,-9.35144 0,0 12.54461,-7.07059 12.54461,-7.07059 0,0 -5.47401,-6.38635 -14.59736,-4.78976 -9.123357,1.59658 -28.510483,16.42203 -28.510483,16.42203 z" />
    <path
       style="fill:#f98298;fill-opacity:0.39647576;stroke:#f98298;stroke-width:0.66801172"
       inkscape:connector-curvature="0"
       id="path3990"
       d="m 78.899314,431.00649 c 23.036466,35.80917 53.599706,23.03647 46.072936,7.98294 -7.52677,-15.05353 -46.072936,-7.98294 -46.072936,-7.98294 z" />
    <path
       style="fill:#f98298;fill-opacity:0.39647576;stroke:#f98298;stroke-width:0.66801172"
       inkscape:connector-curvature="0"
       id="path3993"
       d="m 109.39273,403.40835 c 16.65012,32.15982 45.38868,18.24671 49.95036,9.35144 4.56168,-8.89527 -7.0706,-12.08845 -13.91312,-12.08845 -6.84251,0 -36.03724,2.73701 -36.03724,2.73701 z" />
    <path
       style="fill:#f98298;fill-opacity:0.39647576;stroke:#f98298;stroke-width:0.66801172"
       inkscape:connector-curvature="0"
       id="path3996"
       d="m 121.62237,495.09494 c -12.7727,26.91389 7.29868,32.3879 7.98293,34.21257 0.68426,1.82467 3.87743,-7.75485 4.3336,-11.63227 0.45616,-3.87743 1.82467,16.8782 1.82467,16.8782 0,0 17.79054,-8.89527 8.4391,-21.89605 -9.35144,-13.00078 -22.5803,-17.56245 -22.5803,-17.56245 z" />
    <path
       d="m 25.302727,577.76368 c 24.861138,22.12413 40.827007,4.78976 40.827007,4.78976 0,0 -10.263773,-9.35144 -10.263773,-9.35144 0,0 12.544612,-7.07059 12.544612,-7.07059 0,0 -5.474013,-6.38635 -14.597366,-4.78976 -9.123354,1.59658 -28.51048,16.42203 -28.51048,16.42203 z"
       id="path4000"
       inkscape:connector-curvature="0"
       style="fill:#f98298;fill-opacity:0.39647576;stroke:#f98298;stroke-width:0.66801172" />
    <path
       d="m 18.899314,531.00649 c 23.036468,35.80917 53.599702,23.03647 46.072935,7.98294 -7.526766,-15.05353 -46.072935,-7.98294 -46.072935,-7.98294 z"
       id="path4002"
       inkscape:connector-curvature="0"
       style="fill:#f98298;fill-opacity:0.39647576;stroke:#f98298;stroke-width:0.66801172" />
    <path
       d="m 55.392728,503.40835 c 16.65012,32.15982 45.388682,18.24671 49.950362,9.35144 4.56168,-8.89527 -7.0706,-12.08845 -13.913115,-12.08845 -6.842515,0 -36.037247,2.73701 -36.037247,2.73701 z"
       id="path4004"
       inkscape:connector-curvature="0"
       style="fill:#f98298;fill-opacity:0.39647576;stroke:#f98298;stroke-width:0.66801172" />
    <path
       d="m 81.62237,543.09494 c -12.772695,26.91389 7.298683,32.3879 7.982934,34.21257 0.684252,1.82467 3.877425,-7.75485 4.333593,-11.63227 0.456168,-3.87743 1.824671,16.8782 1.824671,16.8782 0,0 17.790542,-8.89527 8.439102,-21.89605 -9.351438,-13.00078 -22.5803,-17.56245 -22.5803,-17.56245 z"
       id="path4006"
       inkscape:connector-curvature="0"
       style="fill:#f98298;fill-opacity:0.39647576;stroke:#f98298;stroke-width:0.66801172" />
    <path
       d="m 151.30273,15.76368 c 24.86113,22.12413 40.827,4.78976 40.827,4.78976 0,0 -10.26377,-9.35143 -10.26377,-9.35143 0,0 12.54461,-7.070604 12.54461,-7.070604 0,0 -5.47401,-6.386347 -14.59736,-4.78976 -9.12336,1.596586 -28.51048,16.422034 -28.51048,16.422034 z"
       id="path4060"
       inkscape:connector-curvature="0"
       style="fill:#f98298;fill-opacity:0.39647576;stroke:#f98298;stroke-width:0.66801172" />
    <path
       d="m 142.89931,157.0065 c 23.03647,35.80916 53.59971,23.03646 46.07294,7.98293 -7.52677,-15.05353 -46.07294,-7.98293 -46.07294,-7.98293 z"
       id="path4062"
       inkscape:connector-curvature="0"
       style="fill:#f98298;fill-opacity:0.39647576;stroke:#f98298;stroke-width:0.66801172" />
    <path
       d="m 119.39273,65.40835 c 16.65012,32.159822 45.38868,18.246707 49.95036,9.351438 4.56168,-8.89527 -7.0706,-12.088444 -13.91312,-12.088444 -6.84251,0 -36.03724,2.737006 -36.03724,2.737006 z"
       id="path4064"
       inkscape:connector-curvature="0"
       style="fill:#f98298;fill-opacity:0.39647576;stroke:#f98298;stroke-width:0.66801172" />
    <path
       d="m 369.62237,9.094938 c -12.7727,26.913893 7.29868,32.387906 7.98293,34.212576 0.68426,1.824671 3.87743,-7.75485 4.3336,-11.632276 0.45616,-3.877425 1.82467,16.878205 1.82467,16.878205 0,0 17.79054,-8.89527 8.4391,-21.896049 -9.35144,-13.000779 -22.5803,-17.562456 -22.5803,-17.562456 z"
       id="path4066"
       inkscape:connector-curvature="0"
       style="fill:#f98298;fill-opacity:0.39647576;stroke:#f98298;stroke-width:0.66801172" />
    <path
       style="fill:#f98298;fill-opacity:0.39647576;stroke:#f98298;stroke-width:0.66801172"
       inkscape:connector-curvature="0"
       id="path4068"
       d="m 173.30273,111.76368 c 24.86113,22.12413 40.827,4.78976 40.827,4.78976 0,0 -10.26377,-9.35144 -10.26377,-9.35144 0,0 12.54461,-7.07059 12.54461,-7.07059 0,0 -5.47401,-6.38635 -14.59736,-4.78976 -9.12336,1.59658 -28.51048,16.42203 -28.51048,16.42203 z" />
    <path
       style="fill:#f98298;fill-opacity:0.39647576;stroke:#f98298;stroke-width:0.66801172"
       inkscape:connector-curvature="0"
       id="path4070"
       d="m 166.89931,53.00649 c 23.03647,35.80917 53.59971,23.03647 46.07294,7.98294 -7.52677,-15.05353 -46.07294,-7.98294 -46.07294,-7.98294 z" />
    <path
       style="fill:#f98298;fill-opacity:0.39647576;stroke:#f98298;stroke-width:0.66801172"
       inkscape:connector-curvature="0"
       id="path4072"
       d="m 203.39273,25.40835 c 16.65012,32.15982 45.38868,18.24671 49.95036,9.35144 4.56168,-8.89527 -7.0706,-12.08845 -13.91312,-12.08845 -6.84251,0 -36.03724,2.73701 -36.03724,2.73701 z" />
    <path
       style="fill:#f98298;fill-opacity:0.39647576;stroke:#f98298;stroke-width:0.66801172"
       inkscape:connector-curvature="0"
       id="path4074"
       d="m 229.62237,65.09494 c -12.7727,26.91389 7.29868,32.3879 7.98293,34.21257 0.68426,1.82467 3.87743,-7.75485 4.3336,-11.63227 0.45617,-3.87743 1.82467,16.8782 1.82467,16.8782 0,0 17.79054,-8.89527 8.4391,-21.89605 -9.35144,-13.00078 -22.5803,-17.56245 -22.5803,-17.56245 z" />
    <path
       d="m 187.30273,201.76368 c 24.86113,22.12413 40.827,4.78976 40.827,4.78976 0,0 -10.26377,-9.35144 -10.26377,-9.35144 0,0 12.54461,-7.07059 12.54461,-7.07059 0,0 -5.47401,-6.38635 -14.59736,-4.78976 -9.12336,1.59658 -28.51048,16.42203 -28.51048,16.42203 z"
       id="path4076"
       inkscape:connector-curvature="0"
       style="fill:#f98298;fill-opacity:0.39647576;stroke:#f98298;stroke-width:0.66801172" />
    <path
       d="m 206.89931,147.00649 c 23.03647,35.80917 53.59971,23.03647 46.07294,7.98294 -7.52677,-15.05353 -46.07294,-7.98294 -46.07294,-7.98294 z"
       id="path4078"
       inkscape:connector-curvature="0"
       style="fill:#f98298;fill-opacity:0.39647576;stroke:#f98298;stroke-width:0.66801172" />
    <path
       d="m 251.39273,121.40835 c 16.65012,32.15982 45.38868,18.24671 49.95036,9.35144 4.56168,-8.89527 -7.0706,-12.08845 -13.91312,-12.08845 -6.84251,0 -36.03724,2.73701 -36.03724,2.73701 z"
       id="path4080"
       inkscape:connector-curvature="0"
       style="fill:#f98298;fill-opacity:0.39647576;stroke:#f98298;stroke-width:0.66801172" />
    <path
       d="m 247.62237,211.09494 c -12.77269,26.91389 7.29868,32.3879 7.98293,34.21257 0.68426,1.82467 3.87743,-7.75485 4.3336,-11.63227 0.45616,-3.87743 1.82467,16.8782 1.82467,16.8782 0,0 17.79054,-8.89527 8.4391,-21.89605 -9.35144,-13.00078 -22.5803,-17.56245 -22.5803,-17.56245 z"
       id="path4082"
       inkscape:connector-curvature="0"
       style="fill:#f98298;fill-opacity:0.39647576;stroke:#f98298;stroke-width:0.66801172" />
    <path
       style="fill:#f98298;fill-opacity:0.39647576;stroke:#f98298;stroke-width:0.66801172"
       inkscape:connector-curvature="0"
       id="path4084"
       d="m 173.30273,311.76368 c 24.86113,22.12413 40.827,4.78976 40.827,4.78976 0,0 -10.26377,-9.35144 -10.26377,-9.35144 0,0 12.54461,-7.07059 12.54461,-7.07059 0,0 -5.47401,-6.38635 -14.59736,-4.78976 -9.12336,1.59658 -28.51048,16.42203 -28.51048,16.42203 z" />
    <path
       style="fill:#f98298;fill-opacity:0.39647576;stroke:#f98298;stroke-width:0.66801172"
       inkscape:connector-curvature="0"
       id="path4086"
       d="m 150.89931,265.00649 c 23.03647,35.80917 53.59971,23.03647 46.07294,7.98294 -7.52677,-15.05353 -46.07294,-7.98294 -46.07294,-7.98294 z" />
    <path
       style="fill:#f98298;fill-opacity:0.39647576;stroke:#f98298;stroke-width:0.66801172"
       inkscape:connector-curvature="0"
       id="path4088"
       d="m 179.39273,233.40835 c 16.65012,32.15982 45.38868,18.24671 49.95036,9.35144 4.56168,-8.89527 -7.0706,-12.08845 -13.91312,-12.08845 -6.84251,0 -36.03724,2.73701 -36.03724,2.73701 z" />
    <path
       style="fill:#f98298;fill-opacity:0.39647576;stroke:#f98298;stroke-width:0.66801172"
       inkscape:connector-curvature="0"
       id="path4090"
       d="m 233.62237,261.09494 c -12.7727,26.91389 7.29868,32.3879 7.98293,34.21257 0.68426,1.82467 3.87743,-7.75485 4.3336,-11.63227 0.45617,-3.87743 1.82467,16.8782 1.82467,16.8782 0,0 17.79054,-8.89527 8.4391,-21.89605 -9.35144,-13.00078 -22.5803,-17.56245 -22.5803,-17.56245 z" />
    <path
       d="m 201.30273,387.76368 c 24.86114,22.12413 40.827,4.78976 40.827,4.78976 0,0 -10.26377,-9.35144 -10.26377,-9.35144 0,0 12.54461,-7.07059 12.54461,-7.07059 0,0 -5.47401,-6.38635 -14.59736,-4.78976 -9.12336,1.59658 -28.51048,16.42203 -28.51048,16.42203 z"
       id="path4092"
       inkscape:connector-curvature="0"
       style="fill:#f98298;fill-opacity:0.39647576;stroke:#f98298;stroke-width:0.66801172" />
    <path
       d="m 202.89931,341.00649 c 23.03647,35.80917 53.59971,23.03647 46.07294,7.98294 -7.52677,-15.05353 -46.07294,-7.98294 -46.07294,-7.98294 z"
       id="path4094"
       inkscape:connector-curvature="0"
       style="fill:#f98298;fill-opacity:0.39647576;stroke:#f98298;stroke-width:0.66801172" />
    <path
       d="m 233.39273,313.40835 c 16.65012,32.15982 45.38868,18.24671 49.95036,9.35144 4.56168,-8.89527 -7.0706,-12.08845 -13.91312,-12.08845 -6.84251,0 -36.03724,2.73701 -36.03724,2.73701 z"
       id="path4096"
       inkscape:connector-curvature="0"
       style="fill:#f98298;fill-opacity:0.39647576;stroke:#f98298;stroke-width:0.66801172" />
    <path
       d="m 245.62237,405.09494 c -12.7727,26.91389 7.29868,32.3879 7.98293,34.21257 0.68426,1.82467 3.87743,-7.75485 4.3336,-11.63227 0.45616,-3.87743 1.82467,16.8782 1.82467,16.8782 0,0 17.79054,-8.89527 8.4391,-21.89605 -9.35144,-13.00078 -22.5803,-17.56245 -22.5803,-17.56245 z"
       id="path4098"
       inkscape:connector-curvature="0"
       style="fill:#f98298;fill-opacity:0.39647576;stroke:#f98298;stroke-width:0.66801172" />
    <path
       style="fill:#f98298;fill-opacity:0.39647576;stroke:#f98298;stroke-width:0.66801172"
       inkscape:connector-curvature="0"
       id="path4100"
       d="m 149.30273,487.76368 c 24.86113,22.12413 40.827,4.78976 40.827,4.78976 0,0 -10.26377,-9.35144 -10.26377,-9.35144 0,0 12.54461,-7.07059 12.54461,-7.07059 0,0 -5.47401,-6.38635 -14.59736,-4.78976 -9.12336,1.59658 -28.51048,16.42203 -28.51048,16.42203 z" />
    <path
       style="fill:#f98298;fill-opacity:0.39647576;stroke:#f98298;stroke-width:0.66801172"
       inkscape:connector-curvature="0"
       id="path4102"
       d="m 142.89931,441.00649 c 23.03647,35.80917 53.59971,23.03647 46.07294,7.98294 -7.52677,-15.05353 -46.07294,-7.98294 -46.07294,-7.98294 z" />
    <path
       style="fill:#f98298;fill-opacity:0.39647576;stroke:#f98298;stroke-width:0.66801172"
       inkscape:connector-curvature="0"
       id="path4104"
       d="m 179.39273,413.40835 c 16.65012,32.15982 45.38868,18.24671 49.95036,9.35144 4.56168,-8.89527 -7.0706,-12.08845 -13.91312,-12.08845 -6.84251,0 -36.03724,2.73701 -36.03724,2.73701 z" />
    <path
       style="fill:#f98298;fill-opacity:0.39647576;stroke:#f98298;stroke-width:0.66801172"
       inkscape:connector-curvature="0"
       id="path4106"
       d="m 205.62237,453.09494 c -12.7727,26.91389 7.29868,32.3879 7.98293,34.21257 0.68426,1.82467 3.87743,-7.75485 4.3336,-11.63227 0.45616,-3.87743 1.82467,16.8782 1.82467,16.8782 0,0 17.79054,-8.89527 8.4391,-21.89605 -9.35144,-13.00078 -22.5803,-17.56245 -22.5803,-17.56245 z" />
    <path
       style="fill:#f98298;fill-opacity:0.39647576;stroke:#f98298;stroke-width:0.66801172"
       inkscape:connector-curvature="0"
       id="path4110"
       d="m 253.30273,201.76368 c 24.86113,22.12413 40.827,4.78976 40.827,4.78976 0,0 -10.26377,-9.35143 -10.26377,-9.35143 0,0 12.54461,-7.0706 12.54461,-7.0706 0,0 -5.47401,-6.38635 -14.59736,-4.78976 -9.12336,1.59658 -28.51048,16.42203 -28.51048,16.42203 z" />
    <path
       style="fill:#f98298;fill-opacity:0.39647576;stroke:#f98298;stroke-width:0.66801172"
       inkscape:connector-curvature="0"
       id="path4112"
       d="m 260.89931,67.006495 c 23.03647,35.809165 53.59971,23.036468 46.07294,7.982934 -7.52677,-15.053533 -46.07294,-7.982934 -46.07294,-7.982934 z" />
    <path
       style="fill:#f98298;fill-opacity:0.39647576;stroke:#f98298;stroke-width:0.66801172"
       inkscape:connector-curvature="0"
       id="path4114"
       d="m 297.39273,39.40835 c 16.65012,32.159822 45.38868,18.246707 49.95036,9.351438 4.56168,-8.89527 -7.0706,-12.088444 -13.91311,-12.088444 -6.84252,0 -36.03725,2.737006 -36.03725,2.737006 z" />
    <path
       style="fill:#f98298;fill-opacity:0.39647576;stroke:#f98298;stroke-width:0.66801172"
       inkscape:connector-curvature="0"
       id="path4116"
       d="m 323.62237,79.094938 c -12.7727,26.913892 7.29868,32.387902 7.98293,34.212572 0.68426,1.82467 3.87743,-7.75485 4.3336,-11.63227 0.45616,-3.877427 1.82467,16.8782 1.82467,16.8782 0,0 17.79054,-8.89527 8.4391,-21.896046 -9.35144,-13.000779 -22.5803,-17.562456 -22.5803,-17.562456 z" />
    <path
       d="m 291.30273,223.76368 c 24.86113,22.12413 40.827,4.78976 40.827,4.78976 0,0 -10.26377,-9.35144 -10.26377,-9.35144 0,0 12.54461,-7.07059 12.54461,-7.07059 0,0 -5.47401,-6.38635 -14.59736,-4.78976 -9.12336,1.59658 -28.51048,16.42203 -28.51048,16.42203 z"
       id="path4118"
       inkscape:connector-curvature="0"
       style="fill:#f98298;fill-opacity:0.39647576;stroke:#f98298;stroke-width:0.66801172" />
    <path
       d="m 288.89931,165.00649 c 23.03647,35.80917 53.59971,23.03647 46.07294,7.98294 -7.52677,-15.05353 -46.07294,-7.98294 -46.07294,-7.98294 z"
       id="path4120"
       inkscape:connector-curvature="0"
       style="fill:#f98298;fill-opacity:0.39647576;stroke:#f98298;stroke-width:0.66801172" />
    <path
       d="m 321.39273,137.40835 c 16.65012,32.15982 45.38868,18.24671 49.95036,9.35144 4.56168,-8.89527 -7.0706,-12.08845 -13.91312,-12.08845 -6.84251,0 -36.03724,2.73701 -36.03724,2.73701 z"
       id="path4122"
       inkscape:connector-curvature="0"
       style="fill:#f98298;fill-opacity:0.39647576;stroke:#f98298;stroke-width:0.66801172" />
    <path
       d="m 347.62237,177.09494 c -12.7727,26.91389 7.29868,32.3879 7.98293,34.21257 0.68426,1.82467 3.87743,-7.75485 4.3336,-11.63227 0.45617,-3.87743 1.82467,16.8782 1.82467,16.8782 0,0 17.79054,-8.89527 8.4391,-21.89605 -9.35144,-13.00078 -22.5803,-17.56245 -22.5803,-17.56245 z"
       id="path4124"
       inkscape:connector-curvature="0"
       style="fill:#f98298;fill-opacity:0.39647576;stroke:#f98298;stroke-width:0.66801172" />
    <path
       style="fill:#f98298;fill-opacity:0.39647576;stroke:#f98298;stroke-width:0.66801172"
       inkscape:connector-curvature="0"
       id="path4126"
       d="m 305.30273,313.76368 c 24.86113,22.12413 40.827,4.78976 40.827,4.78976 0,0 -10.26377,-9.35144 -10.26377,-9.35144 0,0 12.54461,-7.07059 12.54461,-7.07059 0,0 -5.47401,-6.38635 -14.59736,-4.78976 -9.12336,1.59658 -28.51048,16.42203 -28.51048,16.42203 z" />
    <path
       style="fill:#f98298;fill-opacity:0.39647576;stroke:#f98298;stroke-width:0.66801172"
       inkscape:connector-curvature="0"
       id="path4128"
       d="m 302.89931,259.00649 c 23.03647,35.80917 53.59971,23.03647 46.07294,7.98294 -7.52677,-15.05353 -46.07294,-7.98294 -46.07294,-7.98294 z" />
    <path
       style="fill:#f98298;fill-opacity:0.39647576;stroke:#f98298;stroke-width:0.66801172"
       inkscape:connector-curvature="0"
       id="path4130"
       d="m 343.39273,239.40835 c 16.65012,32.15982 45.38868,18.24671 49.95036,9.35144 4.56168,-8.89527 -7.0706,-12.08845 -13.91312,-12.08845 -6.84251,0 -36.03724,2.73701 -36.03724,2.73701 z" />
    <path
       style="fill:#f98298;fill-opacity:0.39647576;stroke:#f98298;stroke-width:0.66801172"
       inkscape:connector-curvature="0"
       id="path4132"
       d="m 365.62237,323.09494 c -12.77269,26.91389 7.29868,32.3879 7.98293,34.21257 0.68426,1.82467 3.87743,-7.75485 4.3336,-11.63227 0.45616,-3.87743 1.82467,16.8782 1.82467,16.8782 0,0 17.79054,-8.89527 8.4391,-21.89605 -9.35144,-13.00078 -22.5803,-17.56245 -22.5803,-17.56245 z" />
    <path
       d="m 291.30273,423.76368 c 24.86113,22.12413 40.827,4.78976 40.827,4.78976 0,0 -10.26377,-9.35144 -10.26377,-9.35144 0,0 12.54461,-7.07059 12.54461,-7.07059 0,0 -5.47401,-6.38635 -14.59736,-4.78976 -9.12336,1.59658 -28.51048,16.42203 -28.51048,16.42203 z"
       id="path4134"
       inkscape:connector-curvature="0"
       style="fill:#f98298;fill-opacity:0.39647576;stroke:#f98298;stroke-width:0.66801172" />
    <path
       d="m 268.89931,377.00649 c 23.03647,35.80917 53.59971,23.03647 46.07294,7.98294 -7.52677,-15.05353 -46.07294,-7.98294 -46.07294,-7.98294 z"
       id="path4136"
       inkscape:connector-curvature="0"
       style="fill:#f98298;fill-opacity:0.39647576;stroke:#f98298;stroke-width:0.66801172" />
    <path
       d="m 297.39273,345.40835 c 16.65012,32.15982 45.38868,18.24671 49.95036,9.35144 4.56168,-8.89527 -7.0706,-12.08845 -13.91311,-12.08845 -6.84252,0 -36.03725,2.73701 -36.03725,2.73701 z"
       id="path4138"
       inkscape:connector-curvature="0"
       style="fill:#f98298;fill-opacity:0.39647576;stroke:#f98298;stroke-width:0.66801172" />
    <path
       d="m 351.62237,373.09494 c -12.7727,26.91389 7.29868,32.3879 7.98293,34.21257 0.68426,1.82467 3.87743,-7.75485 4.3336,-11.63227 0.45617,-3.87743 1.82467,16.8782 1.82467,16.8782 0,0 17.79054,-8.89527 8.4391,-21.89605 -9.35144,-13.00078 -22.5803,-17.56245 -22.5803,-17.56245 z"
       id="path4140"
       inkscape:connector-curvature="0"
       style="fill:#f98298;fill-opacity:0.39647576;stroke:#f98298;stroke-width:0.66801172" />
    <path
       style="fill:#f98298;fill-opacity:0.39647576;stroke:#f98298;stroke-width:0.66801172"
       inkscape:connector-curvature="0"
       id="path4142"
       d="m 319.30273,499.76368 c 24.86114,22.12413 40.827,4.78976 40.827,4.78976 0,0 -10.26377,-9.35144 -10.26377,-9.35144 0,0 12.54461,-7.07059 12.54461,-7.07059 0,0 -5.47401,-6.38635 -14.59736,-4.78976 -9.12336,1.59658 -28.51048,16.42203 -28.51048,16.42203 z" />
    <path
       style="fill:#f98298;fill-opacity:0.39647576;stroke:#f98298;stroke-width:0.66801172"
       inkscape:connector-curvature="0"
       id="path4144"
       d="m 378.89931,459.00649 c 23.03647,35.80917 53.59971,23.03647 46.07294,7.98294 -7.52677,-15.05353 -46.07294,-7.98294 -46.07294,-7.98294 z" />
    <path
       style="fill:#f98298;fill-opacity:0.39647576;stroke:#f98298;stroke-width:0.66801172"
       inkscape:connector-curvature="0"
       id="path4146"
       d="m 351.39273,425.40835 c 16.65012,32.15982 45.38868,18.24671 49.95036,9.35144 4.56168,-8.89527 -7.0706,-12.08845 -13.91312,-12.08845 -6.84251,0 -36.03724,2.73701 -36.03724,2.73701 z" />
    <path
       style="fill:#f98298;fill-opacity:0.39647576;stroke:#f98298;stroke-width:0.66801172"
       inkscape:connector-curvature="0"
       id="path4148"
       d="m 363.62237,517.09494 c -12.7727,26.91389 7.29868,32.3879 7.98293,34.21257 0.68426,1.82467 3.87743,-7.75485 4.3336,-11.63227 0.45616,-3.87743 1.82467,16.8782 1.82467,16.8782 0,0 17.79054,-8.89527 8.4391,-21.89605 -9.35144,-13.00078 -22.5803,-17.56245 -22.5803,-17.56245 z" />
    <path
       d="m 263.30273,475.76368 c 24.86113,22.12413 40.827,4.78976 40.827,4.78976 0,0 -10.26377,-9.35144 -10.26377,-9.35144 0,0 12.54461,-7.07059 12.54461,-7.07059 0,0 -5.47401,-6.38635 -14.59736,-4.78976 -9.12336,1.59658 -28.51048,16.42203 -28.51048,16.42203 z"
       id="path4150"
       inkscape:connector-curvature="0"
       style="fill:#f98298;fill-opacity:0.39647576;stroke:#f98298;stroke-width:0.66801172" />
    <path
       d="m 260.89931,553.00649 c 23.03647,35.80917 53.59971,23.03647 46.07294,7.98294 -7.52677,-15.05353 -46.07294,-7.98294 -46.07294,-7.98294 z"
       id="path4152"
       inkscape:connector-curvature="0"
       style="fill:#f98298;fill-opacity:0.39647576;stroke:#f98298;stroke-width:0.66801172" />
    <path
       d="m 297.39273,525.40835 c 16.65012,32.15982 45.38868,18.24671 49.95036,9.35144 4.56168,-8.89527 -7.0706,-12.08845 -13.91311,-12.08845 -6.84252,0 -36.03725,2.73701 -36.03725,2.73701 z"
       id="path4154"
       inkscape:connector-curvature="0"
       style="fill:#f98298;fill-opacity:0.39647576;stroke:#f98298;stroke-width:0.66801172" />
    <path
       d="m 335.92278,554.55173 c -12.7727,26.91389 7.29868,32.3879 7.98293,34.21257 0.68426,1.82467 3.87743,-7.75485 4.3336,-11.63227 0.45616,-3.87743 1.82467,16.8782 1.82467,16.8782 0,0 17.79054,-8.89527 8.4391,-21.89605 -9.35144,-13.00078 -22.5803,-17.56245 -22.5803,-17.56245 z"
       id="path4156"
       inkscape:connector-curvature="0"
       style="fill:#f98298;fill-opacity:0.39647576;stroke:#f98298;stroke-width:0.66801172" />
    <path
       d="m 385.30273,127.76368 c 24.86113,22.12413 40.827,4.78976 40.827,4.78976 0,0 -10.26377,-9.35143 -10.26377,-9.35143 0,0 12.54461,-7.0706 12.54461,-7.0706 0,0 -5.47401,-6.38635 -14.59736,-4.78976 -9.12336,1.59658 -28.51048,16.42203 -28.51048,16.42203 z"
       id="path4160"
       inkscape:connector-curvature="0"
       style="fill:#f98298;fill-opacity:0.39647576;stroke:#f98298;stroke-width:0.66801172" />
    <path
       d="m 376.89931,67.006495 c 23.03647,35.809165 53.59971,23.036468 46.07294,7.982934 -7.52677,-15.053533 -46.07294,-7.982934 -46.07294,-7.982934 z"
       id="path4162"
       inkscape:connector-curvature="0"
       style="fill:#f98298;fill-opacity:0.39647576;stroke:#f98298;stroke-width:0.66801172" />
    <path
       d="m 413.39273,39.40835 c 16.65012,32.159822 45.38868,18.246707 49.95036,9.351438 4.56168,-8.89527 -7.0706,-12.088444 -13.91311,-12.088444 -6.84252,0 -36.03725,2.737006 -36.03725,2.737006 z"
       id="path4164"
       inkscape:connector-curvature="0"
       style="fill:#f98298;fill-opacity:0.39647576;stroke:#f98298;stroke-width:0.66801172" />
    <path
       d="m 439.62237,79.094938 c -12.7727,26.913892 7.29868,32.387902 7.98293,34.212572 0.68426,1.82467 3.87743,-7.75485 4.3336,-11.63227 0.45616,-3.877427 1.82467,16.8782 1.82467,16.8782 0,0 17.79054,-8.89527 8.4391,-21.896046 -9.35144,-13.000779 -22.5803,-17.562456 -22.5803,-17.562456 z"
       id="path4166"
       inkscape:connector-curvature="0"
       style="fill:#f98298;fill-opacity:0.39647576;stroke:#f98298;stroke-width:0.66801172" />
    <path
       style="fill:#f98298;fill-opacity:0.39647576;stroke:#f98298;stroke-width:0.66801172"
       inkscape:connector-curvature="0"
       id="path4168"
       d="m 407.30273,223.76368 c 24.86113,22.12413 40.827,4.78976 40.827,4.78976 0,0 -10.26377,-9.35144 -10.26377,-9.35144 0,0 12.54461,-7.07059 12.54461,-7.07059 0,0 -5.47401,-6.38635 -14.59736,-4.78976 -9.12336,1.59658 -28.51048,16.42203 -28.51048,16.42203 z" />
    <path
       style="fill:#f98298;fill-opacity:0.39647576;stroke:#f98298;stroke-width:0.66801172"
       inkscape:connector-curvature="0"
       id="path4170"
       d="m 400.89931,165.00649 c 23.03647,35.80917 53.59971,23.03647 46.07294,7.98294 -7.52677,-15.05353 -46.07294,-7.98294 -46.07294,-7.98294 z" />
    <path
       style="fill:#f98298;fill-opacity:0.39647576;stroke:#f98298;stroke-width:0.66801172"
       inkscape:connector-curvature="0"
       id="path4172"
       d="m 449.69314,142.67995 c 16.65012,32.15982 45.38868,18.24671 49.95036,9.35144 4.56168,-8.89527 -7.0706,-12.08845 -13.91312,-12.08845 -6.84251,0 -36.03724,2.73701 -36.03724,2.73701 z" />
    <path
       style="fill:#f98298;fill-opacity:0.39647576;stroke:#f98298;stroke-width:0.66801172"
       inkscape:connector-curvature="0"
       id="path4174"
       d="m 482.95159,178.85214 c -12.7727,26.91389 7.29868,32.3879 7.98293,34.21257 0.68426,1.82467 3.87743,-7.75485 4.3336,-11.63227 0.45617,-3.87743 1.82467,16.8782 1.82467,16.8782 0,0 17.79054,-8.89527 8.4391,-21.89605 -9.35144,-13.00078 -22.5803,-17.56245 -22.5803,-17.56245 z" />
    <path
       d="m 421.30273,313.76368 c 24.86113,22.12413 40.827,4.78976 40.827,4.78976 0,0 -10.26377,-9.35144 -10.26377,-9.35144 0,0 12.54461,-7.07059 12.54461,-7.07059 0,0 -5.47401,-6.38635 -14.59736,-4.78976 -9.12336,1.59658 -28.51048,16.42203 -28.51048,16.42203 z"
       id="path4176"
       inkscape:connector-curvature="0"
       style="fill:#f98298;fill-opacity:0.39647576;stroke:#f98298;stroke-width:0.66801172" />
    <path
       d="m 418.89931,259.00649 c 23.03647,35.80917 53.59971,23.03647 46.07294,7.98294 -7.52677,-15.05353 -46.07294,-7.98294 -46.07294,-7.98294 z"
       id="path4178"
       inkscape:connector-curvature="0"
       style="fill:#f98298;fill-opacity:0.39647576;stroke:#f98298;stroke-width:0.66801172" />
    <path
       d="m 459.39273,239.40835 c 16.65012,32.15982 45.38868,18.24671 49.95036,9.35144 4.56168,-8.89527 -7.0706,-12.08845 -13.91312,-12.08845 -6.84251,0 -36.03724,2.73701 -36.03724,2.73701 z"
       id="path4180"
       inkscape:connector-curvature="0"
       style="fill:#f98298;fill-opacity:0.39647576;stroke:#f98298;stroke-width:0.66801172" />
    <path
       d="m 481.62237,323.09494 c -12.77269,26.91389 7.29868,32.3879 7.98293,34.21257 0.68426,1.82467 3.87743,-7.75485 4.3336,-11.63227 0.45616,-3.87743 1.82467,16.8782 1.82467,16.8782 0,0 17.79054,-8.89527 8.4391,-21.89605 -9.35144,-13.00078 -22.5803,-17.56245 -22.5803,-17.56245 z"
       id="path4182"
       inkscape:connector-curvature="0"
       style="fill:#f98298;fill-opacity:0.39647576;stroke:#f98298;stroke-width:0.66801172" />
    <path
       style="fill:#f98298;fill-opacity:0.39647576;stroke:#f98298;stroke-width:0.66801172"
       inkscape:connector-curvature="0"
       id="path4184"
       d="m 407.30273,423.76368 c 24.86113,22.12413 40.827,4.78976 40.827,4.78976 0,0 -10.26377,-9.35144 -10.26377,-9.35144 0,0 12.54461,-7.07059 12.54461,-7.07059 0,0 -5.47401,-6.38635 -14.59736,-4.78976 -9.12336,1.59658 -28.51048,16.42203 -28.51048,16.42203 z" />
    <path
       style="fill:#f98298;fill-opacity:0.39647576;stroke:#f98298;stroke-width:0.66801172"
       inkscape:connector-curvature="0"
       id="path4186"
       d="m 384.89931,377.00649 c 23.03647,35.80917 53.59971,23.03647 46.07294,7.98294 -7.52677,-15.05353 -46.07294,-7.98294 -46.07294,-7.98294 z" />
    <path
       style="fill:#f98298;fill-opacity:0.39647576;stroke:#f98298;stroke-width:0.66801172"
       inkscape:connector-curvature="0"
       id="path4188"
       d="m 413.39273,345.40835 c 16.65012,32.15982 45.38868,18.24671 49.95036,9.35144 4.56168,-8.89527 -7.0706,-12.08845 -13.91311,-12.08845 -6.84252,0 -36.03725,2.73701 -36.03725,2.73701 z" />
    <path
       style="fill:#f98298;fill-opacity:0.39647576;stroke:#f98298;stroke-width:0.66801172"
       inkscape:connector-curvature="0"
       id="path4190"
       d="m 467.62237,373.09494 c -12.7727,26.91389 7.29868,32.3879 7.98293,34.21257 0.68426,1.82467 3.87743,-7.75485 4.3336,-11.63227 0.45617,-3.87743 1.82467,16.8782 1.82467,16.8782 0,0 17.79054,-8.89527 8.4391,-21.89605 -9.35144,-13.00078 -22.5803,-17.56245 -22.5803,-17.56245 z" />
    <path
       d="m 435.30273,499.76368 c 24.86114,22.12413 40.827,4.78976 40.827,4.78976 0,0 -10.26377,-9.35144 -10.26377,-9.35144 0,0 12.54461,-7.07059 12.54461,-7.07059 0,0 -5.47401,-6.38635 -14.59736,-4.78976 -9.12336,1.59658 -28.51048,16.42203 -28.51048,16.42203 z"
       id="path4192"
       inkscape:connector-curvature="0"
       style="fill:#f98298;fill-opacity:0.39647576;stroke:#f98298;stroke-width:0.66801172" />
    <path
       d="m 436.89931,453.00649 c 23.03647,35.80917 53.59971,23.03647 46.07294,7.98294 -7.52677,-15.05353 -46.07294,-7.98294 -46.07294,-7.98294 z"
       id="path4194"
       inkscape:connector-curvature="0"
       style="fill:#f98298;fill-opacity:0.39647576;stroke:#f98298;stroke-width:0.66801172" />
    <path
       d="m 467.39273,425.40835 c 16.65012,32.15982 45.38868,18.24671 49.95036,9.35144 4.56168,-8.89527 -7.0706,-12.08845 -13.91312,-12.08845 -6.84251,0 -36.03724,2.73701 -36.03724,2.73701 z"
       id="path4196"
       inkscape:connector-curvature="0"
       style="fill:#f98298;fill-opacity:0.39647576;stroke:#f98298;stroke-width:0.66801172" />
    <path
       d="m 479.62237,517.09494 c -12.7727,26.91389 7.29868,32.3879 7.98293,34.21257 0.68426,1.82467 3.87743,-7.75485 4.3336,-11.63227 0.45616,-3.87743 1.82467,16.8782 1.82467,16.8782 0,0 17.79054,-8.89527 8.4391,-21.89605 -9.35144,-13.00078 -22.5803,-17.56245 -22.5803,-17.56245 z"
       id="path4198"
       inkscape:connector-curvature="0"
       style="fill:#f98298;fill-opacity:0.39647576;stroke:#f98298;stroke-width:0.66801172" />
    <path
       style="fill:#f98298;fill-opacity:0.39647576;stroke:#f98298;stroke-width:0.66801172"
       inkscape:connector-curvature="0"
       id="path4200"
       d="m 135.5373,578.67726 c 24.86113,22.12413 40.827,4.78976 40.827,4.78976 0,0 -10.26377,-9.35144 -10.26377,-9.35144 0,0 12.54461,-7.07059 12.54461,-7.07059 0,0 -5.47401,-6.38635 -14.59736,-4.78976 -9.12336,1.59658 -28.51048,16.42203 -28.51048,16.42203 z" />
    <path
       style="fill:#f98298;fill-opacity:0.39647576;stroke:#f98298;stroke-width:0.66801172"
       inkscape:connector-curvature="0"
       id="path4202"
       d="m 164.27791,517.86246 c 23.03647,35.80917 53.59971,23.03647 46.07294,7.98294 -7.52677,-15.05353 -46.07294,-7.98294 -46.07294,-7.98294 z" />
    <path
       style="fill:#f98298;fill-opacity:0.39647576;stroke:#f98298;stroke-width:0.66801172"
       inkscape:connector-curvature="0"
       id="path4204"
       d="m 413.39273,525.40835 c 16.65012,32.15982 45.38868,18.24671 49.95036,9.35144 4.56168,-8.89527 -7.0706,-12.08845 -13.91311,-12.08845 -6.84252,0 -36.03725,2.73701 -36.03725,2.73701 z" />
    <path
       style="fill:#f98298;fill-opacity:0.39647576;stroke:#f98298;stroke-width:0.66801172"
       inkscape:connector-curvature="0"
       id="path4206"
       d="m 439.62237,565.09494 c -12.7727,26.91389 7.29868,32.3879 7.98293,34.21257 0.68426,1.82467 3.87743,-7.75485 4.3336,-11.63227 0.45616,-3.87743 1.82467,16.8782 1.82467,16.8782 0,0 17.79054,-8.89527 8.4391,-21.89605 -9.35144,-13.00078 -22.5803,-17.56245 -22.5803,-17.56245 z" />
    <path
       style="fill:#f98298;fill-opacity:0.39647576;stroke:#f98298;stroke-width:0.66801172"
       inkscape:connector-curvature="0"
       id="path4210"
       d="m 499.30273,47.76368 c 24.86113,22.12413 40.827,4.78976 40.827,4.78976 0,0 -10.26377,-9.35143 -10.26377,-9.35143 0,0 12.54461,-7.070604 12.54461,-7.070604 0,0 -5.47401,-6.386347 -14.59736,-4.78976 -9.12336,1.596586 -28.51048,16.422034 -28.51048,16.422034 z" />
    <path
       style="fill:#f98298;fill-opacity:0.39647576;stroke:#f98298;stroke-width:0.66801172"
       inkscape:connector-curvature="0"
       id="path4212"
       d="m 446.89931,11.006495 c 23.03647,35.809163 53.59971,23.036468 46.07294,7.982934 -7.52677,-15.053533 -46.07294,-7.982934 -46.07294,-7.982934 z" />
    <path
       style="fill:#f98298;fill-opacity:0.39647576;stroke:#f98298;stroke-width:0.66801172"
       inkscape:connector-curvature="0"
       id="path4214"
       d="m 595.39273,19.40835 c 16.65012,32.159822 45.38868,18.246707 49.95036,9.351438 4.56168,-8.89527 -7.0706,-12.088444 -13.91311,-12.088444 -6.84252,0 -36.03725,2.737006 -36.03725,2.737006 z" />
    <path
       style="fill:#f98298;fill-opacity:0.39647576;stroke:#f98298;stroke-width:0.66801172"
       inkscape:connector-curvature="0"
       id="path4216"
       d="m 553.62237,-0.905062 c -12.77269,26.913893 7.29868,32.387906 7.98293,34.212576 0.68426,1.824671 3.87743,-7.75485 4.3336,-11.632276 0.45617,-3.877425 1.82467,16.878205 1.82467,16.878205 0,0 17.79054,-8.89527 8.4391,-21.896049 -9.35144,-13.000779 -22.5803,-17.562456 -22.5803,-17.562456 z" />
    <path
       d="m 521.30273,143.76368 c 24.86113,22.12413 40.827,4.78976 40.827,4.78976 0,0 -10.26377,-9.35144 -10.26377,-9.35144 0,0 12.54461,-7.07059 12.54461,-7.07059 0,0 -5.47401,-6.38635 -14.59736,-4.78976 -9.12336,1.59658 -28.51048,16.42203 -28.51048,16.42203 z"
       id="path4218"
       inkscape:connector-curvature="0"
       style="fill:#f98298;fill-opacity:0.39647576;stroke:#f98298;stroke-width:0.66801172" />
    <path
       d="m 514.89931,85.00649 c 23.03647,35.80917 53.59971,23.03647 46.07294,7.98294 -7.52677,-15.05353 -46.07294,-7.98294 -46.07294,-7.98294 z"
       id="path4220"
       inkscape:connector-curvature="0"
       style="fill:#f98298;fill-opacity:0.39647576;stroke:#f98298;stroke-width:0.66801172" />
    <path
       d="m 551.39273,57.40835 c 16.65012,32.15982 45.38868,18.24671 49.95036,9.35144 4.56168,-8.89527 -7.0706,-12.08845 -13.91312,-12.08845 -6.84251,0 -36.03724,2.73701 -36.03724,2.73701 z"
       id="path4223"
       inkscape:connector-curvature="0"
       style="fill:#f98298;fill-opacity:0.39647576;stroke:#f98298;stroke-width:0.66801172" />
    <path
       d="m 577.62237,97.09494 c -12.77269,26.91389 7.29868,32.3879 7.98293,34.21257 0.68426,1.82467 3.87743,-7.75485 4.3336,-11.63227 0.45617,-3.87743 1.82467,16.8782 1.82467,16.8782 0,0 17.79054,-8.89527 8.4391,-21.89605 -9.35144,-13.00078 -22.5803,-17.56245 -22.5803,-17.56245 z"
       id="path4225"
       inkscape:connector-curvature="0"
       style="fill:#f98298;fill-opacity:0.39647576;stroke:#f98298;stroke-width:0.66801172" />
    <path
       style="fill:#f98298;fill-opacity:0.39647576;stroke:#f98298;stroke-width:0.66801172"
       inkscape:connector-curvature="0"
       id="path4227"
       d="m 535.30273,233.76368 c 24.86113,22.12413 40.827,4.78976 40.827,4.78976 0,0 -10.26377,-9.35144 -10.26377,-9.35144 0,0 12.54461,-7.07059 12.54461,-7.07059 0,0 -5.47401,-6.38635 -14.59736,-4.78976 -9.12336,1.59658 -28.51048,16.42203 -28.51048,16.42203 z" />
    <path
       style="fill:#f98298;fill-opacity:0.39647576;stroke:#f98298;stroke-width:0.66801172"
       inkscape:connector-curvature="0"
       id="path4229"
       d="m 527.62771,179.00649 c 23.03647,35.80917 53.59971,23.03647 46.07294,7.98294 -7.52677,-15.05353 -46.07294,-7.98294 -46.07294,-7.98294 z" />
    <path
       style="fill:#f98298;fill-opacity:0.39647576;stroke:#f98298;stroke-width:0.66801172"
       inkscape:connector-curvature="0"
       id="path4231"
       d="m 573.39273,159.40835 c 16.65012,32.15982 45.38868,18.24671 49.95036,9.35144 4.56168,-8.89527 -7.0706,-12.08845 -13.91312,-12.08845 -6.84251,0 -36.03724,2.73701 -36.03724,2.73701 z" />
    <path
       style="fill:#f98298;fill-opacity:0.39647576;stroke:#f98298;stroke-width:0.66801172"
       inkscape:connector-curvature="0"
       id="path4233"
       d="m 607.62237,199.09494 c -12.77269,26.91389 7.29868,32.3879 7.98293,34.21257 0.68426,1.82467 3.87743,-7.75485 4.3336,-11.63227 0.45616,-3.87743 1.82467,16.8782 1.82467,16.8782 0,0 17.79054,-8.89527 8.4391,-21.89605 -9.35144,-13.00078 -22.5803,-17.56245 -22.5803,-17.56245 z" />
    <path
       d="m 507.24512,394.72253 c 24.86113,22.12413 40.827,4.78976 40.827,4.78976 0,0 -10.26377,-9.35144 -10.26377,-9.35144 0,0 12.54461,-7.07059 12.54461,-7.07059 0,0 -5.47401,-6.38635 -14.59736,-4.78976 -9.12336,1.59658 -28.51048,16.42203 -28.51048,16.42203 z"
       id="path4235"
       inkscape:connector-curvature="0"
       style="fill:#f98298;fill-opacity:0.39647576;stroke:#f98298;stroke-width:0.66801172" />
    <path
       d="m 498.89931,297.00649 c 23.03647,35.80917 53.59971,23.03647 46.07294,7.98294 -7.52677,-15.05353 -46.07294,-7.98294 -46.07294,-7.98294 z"
       id="path4237"
       inkscape:connector-curvature="0"
       style="fill:#f98298;fill-opacity:0.39647576;stroke:#f98298;stroke-width:0.66801172" />
    <path
       d="m 516.84952,265.40835 c 16.65012,32.15982 45.38868,18.24671 49.95036,9.35144 4.56168,-8.89527 -7.0706,-12.08845 -13.91311,-12.08845 -6.84252,0 -36.03725,2.73701 -36.03725,2.73701 z"
       id="path4239"
       inkscape:connector-curvature="0"
       style="fill:#f98298;fill-opacity:0.39647576;stroke:#f98298;stroke-width:0.66801172" />
    <path
       d="m 609.7376,287.82334 c -12.77269,26.91389 7.29868,32.3879 7.98293,34.21257 0.68426,1.82467 3.87743,-7.75485 4.3336,-11.63227 0.45617,-3.87743 1.82467,16.8782 1.82467,16.8782 0,0 17.79054,-8.89527 8.4391,-21.89605 -9.35144,-13.00078 -22.5803,-17.56245 -22.5803,-17.56245 z"
       id="path4241"
       inkscape:connector-curvature="0"
       style="fill:#f98298;fill-opacity:0.39647576;stroke:#f98298;stroke-width:0.66801172" />
    <path
       style="fill:#f98298;fill-opacity:0.39647576;stroke:#f98298;stroke-width:0.66801172"
       inkscape:connector-curvature="0"
       id="path4243"
       d="m 484.28627,579.66903 c 24.86114,22.12413 40.827,4.78976 40.827,4.78976 0,0 -10.26377,-9.35144 -10.26377,-9.35144 0,0 12.54461,-7.07059 12.54461,-7.07059 0,0 -5.47401,-6.38635 -14.59736,-4.78976 -9.12336,1.59658 -28.51048,16.42203 -28.51048,16.42203 z" />
    <path
       style="fill:#f98298;fill-opacity:0.39647576;stroke:#f98298;stroke-width:0.66801172"
       inkscape:connector-curvature="0"
       id="path4245"
       d="m 571.98573,390.57851 c 23.03647,35.80917 53.59971,23.03647 46.07294,7.98294 -7.52677,-15.05353 -46.07294,-7.98294 -46.07294,-7.98294 z" />
    <path
       style="fill:#f98298;fill-opacity:0.39647576;stroke:#f98298;stroke-width:0.66801172"
       inkscape:connector-curvature="0"
       id="path4247"
       d="m 581.39273,345.40835 c 16.65012,32.15982 45.38868,18.24671 49.95036,9.35144 4.56168,-8.89527 -7.0706,-12.08845 -13.91312,-12.08845 -6.84251,0 -36.03724,2.73701 -36.03724,2.73701 z" />
    <path
       style="fill:#f98298;fill-opacity:0.39647576;stroke:#f98298;stroke-width:0.66801172"
       inkscape:connector-curvature="0"
       id="path4249"
       d="m 593.62237,437.09494 c -12.7727,26.91389 7.29868,32.3879 7.98293,34.21257 0.68426,1.82467 3.87743,-7.75485 4.3336,-11.63227 0.45616,-3.87743 1.82467,16.8782 1.82467,16.8782 0,0 17.79054,-8.89527 8.4391,-21.89605 -9.35144,-13.00078 -22.5803,-17.56245 -22.5803,-17.56245 z" />
    <path
       d="m 497.30273,519.76368 c 24.86113,22.12413 40.827,4.78976 40.827,4.78976 0,0 -10.26377,-9.35144 -10.26377,-9.35144 0,0 12.54461,-7.07059 12.54461,-7.07059 0,0 -5.47401,-6.38635 -14.59736,-4.78976 -9.12336,1.59658 -28.51048,16.42203 -28.51048,16.42203 z"
       id="path4251"
       inkscape:connector-curvature="0"
       style="fill:#f98298;fill-opacity:0.39647576;stroke:#f98298;stroke-width:0.66801172" />
    <path
       d="m 490.89931,473.00649 c 23.03647,35.80917 53.59971,23.03647 46.07294,7.98294 -7.52677,-15.05353 -46.07294,-7.98294 -46.07294,-7.98294 z"
       id="path4253"
       inkscape:connector-curvature="0"
       style="fill:#f98298;fill-opacity:0.39647576;stroke:#f98298;stroke-width:0.66801172" />
    <path
       d="m 527.39273,445.40835 c 16.65012,32.15982 45.38868,18.24671 49.95036,9.35144 4.56168,-8.89527 -7.0706,-12.08845 -13.91311,-12.08845 -6.84252,0 -36.03725,2.73701 -36.03725,2.73701 z"
       id="path4255"
       inkscape:connector-curvature="0"
       style="fill:#f98298;fill-opacity:0.39647576;stroke:#f98298;stroke-width:0.66801172" />
    <path
       d="m 553.62237,485.09494 c -12.77269,26.91389 7.29868,32.3879 7.98293,34.21257 0.68426,1.82467 3.87743,-7.75485 4.3336,-11.63227 0.45617,-3.87743 1.82467,16.8782 1.82467,16.8782 0,0 17.79054,-8.89527 8.4391,-21.89605 -9.35144,-13.00078 -22.5803,-17.56245 -22.5803,-17.56245 z"
       id="path4257"
       inkscape:connector-curvature="0"
       style="fill:#f98298;fill-opacity:0.39647576;stroke:#f98298;stroke-width:0.66801172" />
    <path
       d="m 615.30273,143.76368 c 24.86113,22.12413 40.827,4.78976 40.827,4.78976 0,0 -10.26377,-9.35143 -10.26377,-9.35143 0,0 12.54461,-7.0706 12.54461,-7.0706 0,0 -5.47401,-6.38635 -14.59736,-4.78976 -9.12336,1.59658 -28.51048,16.42203 -28.51048,16.42203 z"
       id="path4261"
       inkscape:connector-curvature="0"
       style="fill:#f98298;fill-opacity:0.39647576;stroke:#f98298;stroke-width:0.66801172" />
    <path
       d="m 606.89931,83.006495 c 23.03647,35.809165 53.59971,23.036465 46.07294,7.982934 -7.52677,-15.053533 -46.07294,-7.982934 -46.07294,-7.982934 z"
       id="path4263"
       inkscape:connector-curvature="0"
       style="fill:#f98298;fill-opacity:0.39647576;stroke:#f98298;stroke-width:0.66801172" />
    <path
       d="m 643.39273,55.40835 c 16.65012,32.159822 45.38868,18.246707 49.95036,9.351438 4.56168,-8.89527 -7.0706,-12.088444 -13.91311,-12.088444 -6.84252,0 -36.03725,2.737006 -36.03725,2.737006 z"
       id="path4265"
       inkscape:connector-curvature="0"
       style="fill:#f98298;fill-opacity:0.39647576;stroke:#f98298;stroke-width:0.66801172" />
    <path
       d="m 669.62237,95.094938 c -12.77269,26.913892 7.29868,32.387902 7.98293,34.212572 0.68426,1.82467 3.87743,-7.75485 4.3336,-11.63227 0.45617,-3.87743 1.82467,16.8782 1.82467,16.8782 0,0 17.79054,-8.89527 8.4391,-21.89605 -9.35144,-13.000775 -22.5803,-17.562452 -22.5803,-17.562452 z"
       id="path4267"
       inkscape:connector-curvature="0"
       style="fill:#f98298;fill-opacity:0.39647576;stroke:#f98298;stroke-width:0.66801172" />
    <path
       style="fill:#f98298;fill-opacity:0.39647576;stroke:#f98298;stroke-width:0.66801172"
       inkscape:connector-curvature="0"
       id="path4269"
       d="m 637.30273,239.76368 c 24.86113,22.12413 40.827,4.78976 40.827,4.78976 0,0 -10.26377,-9.35144 -10.26377,-9.35144 0,0 12.54461,-7.07059 12.54461,-7.07059 0,0 -5.47401,-6.38635 -14.59736,-4.78976 -9.12336,1.59658 -28.51048,16.42203 -28.51048,16.42203 z" />
    <path
       style="fill:#f98298;fill-opacity:0.39647576;stroke:#f98298;stroke-width:0.66801172"
       inkscape:connector-curvature="0"
       id="path4271"
       d="m 630.89931,181.00649 c 23.03647,35.80917 53.59971,23.03647 46.07294,7.98294 -7.52677,-15.05353 -46.07294,-7.98294 -46.07294,-7.98294 z" />
    <path
       style="fill:#f98298;fill-opacity:0.39647576;stroke:#f98298;stroke-width:0.66801172"
       inkscape:connector-curvature="0"
       id="path4273"
       d="m 667.39273,153.40835 c 16.65012,32.15982 45.38868,18.24671 49.95036,9.35144 4.56168,-8.89527 -7.0706,-12.08845 -13.91312,-12.08845 -6.84251,0 -36.03724,2.73701 -36.03724,2.73701 z" />
    <path
       style="fill:#f98298;fill-opacity:0.39647576;stroke:#f98298;stroke-width:0.66801172"
       inkscape:connector-curvature="0"
       id="path4275"
       d="m 693.62237,193.09494 c -12.77269,26.91389 7.29868,32.3879 7.98293,34.21257 0.68426,1.82467 3.87743,-7.75485 4.3336,-11.63227 0.45617,-3.87743 1.82467,16.8782 1.82467,16.8782 0,0 17.79054,-8.89527 8.4391,-21.89605 -9.35144,-13.00078 -22.5803,-17.56245 -22.5803,-17.56245 z" />
    <path
       d="m 651.30273,329.76368 c 24.86113,22.12413 40.827,4.78976 40.827,4.78976 0,0 -10.26377,-9.35144 -10.26377,-9.35144 0,0 12.54461,-7.07059 12.54461,-7.07059 0,0 -5.47401,-6.38635 -14.59736,-4.78976 -9.12336,1.59658 -28.51048,16.42203 -28.51048,16.42203 z"
       id="path4277"
       inkscape:connector-curvature="0"
       style="fill:#f98298;fill-opacity:0.39647576;stroke:#f98298;stroke-width:0.66801172" />
    <path
       d="m 648.89931,275.00649 c 23.03647,35.80917 53.59971,23.03647 46.07294,7.98294 -7.52677,-15.05353 -46.07294,-7.98294 -46.07294,-7.98294 z"
       id="path4279"
       inkscape:connector-curvature="0"
       style="fill:#f98298;fill-opacity:0.39647576;stroke:#f98298;stroke-width:0.66801172" />
    <path
       d="m 689.39273,255.40835 c 16.65012,32.15982 45.38868,18.24671 49.95036,9.35144 4.56168,-8.89527 -7.0706,-12.08845 -13.91312,-12.08845 -6.84251,0 -36.03724,2.73701 -36.03724,2.73701 z"
       id="path4281"
       inkscape:connector-curvature="0"
       style="fill:#f98298;fill-opacity:0.39647576;stroke:#f98298;stroke-width:0.66801172" />
    <path
       d="m 757.30961,337.33774 c -12.77269,26.91389 7.29868,32.3879 7.98293,34.21257 0.68426,1.82467 3.87743,-7.75485 4.3336,-11.63227 0.45616,-3.87743 1.82467,16.8782 1.82467,16.8782 0,0 17.79054,-8.89527 8.4391,-21.89605 -9.35144,-13.00078 -22.5803,-17.56245 -22.5803,-17.56245 z"
       id="path4283"
       inkscape:connector-curvature="0"
       style="fill:#f98298;fill-opacity:0.39647576;stroke:#f98298;stroke-width:0.66801172" />
    <path
       style="fill:#f98298;fill-opacity:0.39647576;stroke:#f98298;stroke-width:0.66801172"
       inkscape:connector-curvature="0"
       id="path4285"
       d="m 637.30273,439.76368 c 24.86113,22.12413 40.827,4.78976 40.827,4.78976 0,0 -10.26377,-9.35144 -10.26377,-9.35144 0,0 12.54461,-7.07059 12.54461,-7.07059 0,0 -5.47401,-6.38635 -14.59736,-4.78976 -9.12336,1.59658 -28.51048,16.42203 -28.51048,16.42203 z" />
    <path
       style="fill:#f98298;fill-opacity:0.39647576;stroke:#f98298;stroke-width:0.66801172"
       inkscape:connector-curvature="0"
       id="path4287"
       d="m 625.44252,378.94888 c 23.03647,35.80917 53.59971,23.03647 46.07294,7.98294 -7.52677,-15.05353 -46.07294,-7.98294 -46.07294,-7.98294 z" />
    <path
       style="fill:#f98298;fill-opacity:0.39647576;stroke:#f98298;stroke-width:0.66801172"
       inkscape:connector-curvature="0"
       id="path4289"
       d="m 680.29396,350.86514 c 16.65012,32.15982 45.38868,18.24671 49.95036,9.35144 4.56168,-8.89527 -7.0706,-12.08845 -13.91311,-12.08845 -6.84252,0 -36.03725,2.73701 -36.03725,2.73701 z" />
    <path
       style="fill:#f98298;fill-opacity:0.39647576;stroke:#f98298;stroke-width:0.66801172"
       inkscape:connector-curvature="0"
       id="path4291"
       d="m 697.62237,389.09494 c -12.77269,26.91389 7.29868,32.3879 7.98293,34.21257 0.68426,1.82467 3.87743,-7.75485 4.3336,-11.63227 0.45617,-3.87743 1.82467,16.8782 1.82467,16.8782 0,0 17.79054,-8.89527 8.4391,-21.89605 -9.35144,-13.00078 -22.5803,-17.56245 -22.5803,-17.56245 z" />
    <path
       d="m 665.30273,515.76368 c 24.86114,22.12413 40.827,4.78976 40.827,4.78976 0,0 -10.26377,-9.35144 -10.26377,-9.35144 0,0 12.54461,-7.07059 12.54461,-7.07059 0,0 -5.47401,-6.38635 -14.59736,-4.78976 -9.12336,1.59658 -28.51048,16.42203 -28.51048,16.42203 z"
       id="path4293"
       inkscape:connector-curvature="0"
       style="fill:#f98298;fill-opacity:0.39647576;stroke:#f98298;stroke-width:0.66801172" />
    <path
       d="m 666.89931,469.00649 c 23.03647,35.80917 53.59971,23.03647 46.07294,7.98294 -7.52677,-15.05353 -46.07294,-7.98294 -46.07294,-7.98294 z"
       id="path4295"
       inkscape:connector-curvature="0"
       style="fill:#f98298;fill-opacity:0.39647576;stroke:#f98298;stroke-width:0.66801172" />
    <path
       d="m 697.39273,441.40835 c 16.65012,32.15982 45.38868,18.24671 49.95036,9.35144 4.56168,-8.89527 -7.0706,-12.08845 -13.91312,-12.08845 -6.84251,0 -36.03724,2.73701 -36.03724,2.73701 z"
       id="path4297"
       inkscape:connector-curvature="0"
       style="fill:#f98298;fill-opacity:0.39647576;stroke:#f98298;stroke-width:0.66801172" />
    <path
       d="m 709.62237,533.09494 c -12.7727,26.91389 7.29868,32.3879 7.98293,34.21257 0.68426,1.82467 3.87743,-7.75485 4.3336,-11.63227 0.45616,-3.87743 1.82467,16.8782 1.82467,16.8782 0,0 17.79054,-8.89527 8.4391,-21.89605 -9.35144,-13.00078 -22.5803,-17.56245 -22.5803,-17.56245 z"
       id="path4299"
       inkscape:connector-curvature="0"
       style="fill:#f98298;fill-opacity:0.39647576;stroke:#f98298;stroke-width:0.66801172" />
    <path
       style="fill:#f98298;fill-opacity:0.39647576;stroke:#f98298;stroke-width:0.66801172"
       inkscape:connector-curvature="0"
       id="path4301"
       d="m 581.6731,540.20401 c 24.86113,22.12413 40.827,4.78976 40.827,4.78976 0,0 -10.26377,-9.35144 -10.26377,-9.35144 0,0 12.54461,-7.07059 12.54461,-7.07059 0,0 -5.47401,-6.38635 -14.59736,-4.78976 -9.12336,1.59658 -28.51048,16.42203 -28.51048,16.42203 z" />
    <path
       style="fill:#f98298;fill-opacity:0.39647576;stroke:#f98298;stroke-width:0.66801172"
       inkscape:connector-curvature="0"
       id="path4303"
       d="m 606.89931,569.00649 c 23.03647,35.80917 53.59971,23.03647 46.07294,7.98294 -7.52677,-15.05353 -46.07294,-7.98294 -46.07294,-7.98294 z" />
    <path
       style="fill:#f98298;fill-opacity:0.39647576;stroke:#f98298;stroke-width:0.66801172"
       inkscape:connector-curvature="0"
       id="path4305"
       d="m 643.39273,541.40835 c 16.65012,32.15982 45.38868,18.24671 49.95036,9.35144 4.56168,-8.89527 -7.0706,-12.08845 -13.91311,-12.08845 -6.84252,0 -36.03725,2.73701 -36.03725,2.73701 z" />
    <path
       style="fill:#f98298;fill-opacity:0.39647576;stroke:#f98298;stroke-width:0.66801172"
       inkscape:connector-curvature="0"
       id="path4307"
       d="m 548.37545,552.97971 c -12.77269,26.91389 7.29868,32.3879 7.98293,34.21257 0.68426,1.82467 3.87743,-7.75485 4.3336,-11.63227 0.45617,-3.87743 1.82467,16.8782 1.82467,16.8782 0,0 17.79054,-8.89527 8.4391,-21.89605 -9.35144,-13.00078 -22.5803,-17.56245 -22.5803,-17.56245 z" />
    <path
       style="fill:#f98298;fill-opacity:0.39647576;stroke:#f98298;stroke-width:0.66801172"
       inkscape:connector-curvature="0"
       id="path4311"
       d="m 716.45911,53.76368 c 24.86113,22.12413 40.827,4.78976 40.827,4.78976 0,0 -10.26377,-9.35143 -10.26377,-9.35143 0,0 12.54461,-7.070604 12.54461,-7.070604 0,0 -5.47401,-6.386347 -14.59736,-4.78976 -9.12336,1.596586 -28.51048,16.422034 -28.51048,16.422034 z" />
    <path
       style="fill:#f98298;fill-opacity:0.39647576;stroke:#f98298;stroke-width:0.66801172"
       inkscape:connector-curvature="0"
       id="path4313"
       d="m 671.15445,10.578511 c 23.03647,35.809163 53.59971,23.036468 46.07294,7.982934 -7.52677,-15.0535325 -46.07294,-7.982934 -46.07294,-7.982934 z" />
    <path
       style="fill:#f98298;fill-opacity:0.39647576;stroke:#f98298;stroke-width:0.66801172"
       inkscape:connector-curvature="0"
       id="path4315"
       d="m 707.64787,127.0709 c 16.65012,32.15982 45.38868,18.24671 49.95036,9.35144 4.56168,-8.89527 -7.0706,-12.08844 -13.91311,-12.08844 -6.84252,0 -36.03725,2.737 -36.03725,2.737 z" />
    <path
       style="fill:#f98298;fill-opacity:0.39647576;stroke:#f98298;stroke-width:0.66801172"
       inkscape:connector-curvature="0"
       id="path4317"
       d="m 487.62237,91.09494 c -12.77269,26.91389 7.29868,32.3879 7.98293,34.21257 0.68426,1.82467 3.87743,-7.75485 4.3336,-11.63227 0.45617,-3.87743 1.82467,16.8782 1.82467,16.8782 0,0 17.79054,-8.89527 8.4391,-21.89605 -9.35144,-13.00078 -22.5803,-17.56245 -22.5803,-17.56245 z" />
    <path
       d="m 755.30273,111.76368 c 24.86113,22.12413 40.827,4.78976 40.827,4.78976 0,0 -10.26377,-9.35144 -10.26377,-9.35144 0,0 12.54461,-7.07059 12.54461,-7.07059 0,0 -5.47401,-6.38635 -14.59736,-4.78976 -9.12336,1.59658 -28.51048,16.42203 -28.51048,16.42203 z"
       id="path4319"
       inkscape:connector-curvature="0"
       style="fill:#f98298;fill-opacity:0.39647576;stroke:#f98298;stroke-width:0.66801172" />
    <path
       d="m 700.42606,83.977683 c 23.03647,35.809167 53.59971,23.036467 46.07294,7.98294 -7.52677,-15.05353 -46.07294,-7.98294 -46.07294,-7.98294 z"
       id="path4321"
       inkscape:connector-curvature="0"
       style="fill:#f98298;fill-opacity:0.39647576;stroke:#f98298;stroke-width:0.66801172" />
    <path
       d="m 148.25693,353.34662 c 16.65012,32.15982 45.38868,18.24671 49.95036,9.35144 4.56168,-8.89527 -7.0706,-12.08845 -13.91312,-12.08845 -6.84251,0 -36.03724,2.73701 -36.03724,2.73701 z"
       id="path4323"
       inkscape:connector-curvature="0"
       style="fill:#f98298;fill-opacity:0.39647576;stroke:#f98298;stroke-width:0.66801172" />
    <path
       d="m 14.581218,152.29659 c -12.7726898,26.91389 7.29868,32.3879 7.98293,34.21257 0.68426,1.82467 3.87743,-7.75485 4.3336,-11.63227 0.45617,-3.87743 1.82467,16.8782 1.82467,16.8782 0,0 17.79054,-8.89527 8.4391,-21.89605 -9.35144,-13.00078 -22.5803,-17.56245 -22.5803,-17.56245 z"
       id="path4325"
       inkscape:connector-curvature="0"
       style="fill:#f98298;fill-opacity:0.39647576;stroke:#f98298;stroke-width:0.66801172" />
    <path
       style="fill:#f98298;fill-opacity:0.39647576;stroke:#f98298;stroke-width:0.66801172"
       inkscape:connector-curvature="0"
       id="path4327"
       d="m 741.9159,239.76368 c 24.86113,22.12413 40.827,4.78976 40.827,4.78976 0,0 -10.26377,-9.35144 -10.26377,-9.35144 0,0 12.54461,-7.07059 12.54461,-7.07059 0,0 -5.47401,-6.38635 -14.59736,-4.78976 -9.12336,1.59658 -28.51048,16.42203 -28.51048,16.42203 z" />
    <path
       style="fill:#f98298;fill-opacity:0.39647576;stroke:#f98298;stroke-width:0.66801172"
       inkscape:connector-curvature="0"
       id="path4329"
       d="m 725.45487,179.73489 c 23.03647,35.80917 53.59971,23.03647 46.07294,7.98294 -7.52677,-15.05353 -46.07294,-7.98294 -46.07294,-7.98294 z" />
    <path
       style="fill:#f98298;fill-opacity:0.39647576;stroke:#f98298;stroke-width:0.66801172"
       inkscape:connector-curvature="0"
       id="path4331"
       d="m 581.44211,249.75403 c 16.65012,32.15982 45.38868,18.24671 49.95036,9.35144 4.56168,-8.89527 -7.0706,-12.08845 -13.91312,-12.08845 -6.84251,0 -36.03724,2.73701 -36.03724,2.73701 z" />
    <path
       style="fill:#f98298;fill-opacity:0.39647576;stroke:#f98298;stroke-width:0.66801172"
       inkscape:connector-curvature="0"
       id="path4333"
       d="m 15.009202,396.69988 c -12.7726903,26.91389 7.29868,32.3879 7.98293,34.21257 0.68426,1.82467 3.87743,-7.75485 4.3336,-11.63227 0.45616,-3.87743 1.82467,16.8782 1.82467,16.8782 0,0 17.79054,-8.89527 8.4391,-21.89605 -9.35144,-13.00078 -22.5803,-17.56245 -22.5803,-17.56245 z" />
    <path
       d="m 374.71837,293.53323 c 24.86113,22.12413 40.827,4.78976 40.827,4.78976 0,0 -10.26377,-9.35144 -10.26377,-9.35144 0,0 12.54461,-7.07059 12.54461,-7.07059 0,0 -5.47401,-6.38635 -14.59736,-4.78976 -9.12336,1.59658 -28.51048,16.42203 -28.51048,16.42203 z"
       id="path4335"
       inkscape:connector-curvature="0"
       style="fill:#f98298;fill-opacity:0.39647576;stroke:#f98298;stroke-width:0.66801172" />
    <path
       d="m 721.32729,303.00649 c 23.03647,35.80917 53.59971,23.03647 46.07294,7.98294 -7.52677,-15.05353 -46.07294,-7.98294 -46.07294,-7.98294 z"
       id="path4337"
       inkscape:connector-curvature="0"
       style="fill:#f98298;fill-opacity:0.39647576;stroke:#f98298;stroke-width:0.66801172" />
    <path
       d="m 739.2775,266.13675 c 16.65012,32.15982 45.38868,18.24671 49.95036,9.35144 4.56168,-8.89527 -7.0706,-12.08845 -13.91311,-12.08845 -6.84252,0 -36.03725,2.73701 -36.03725,2.73701 z"
       id="path4339"
       inkscape:connector-curvature="0"
       style="fill:#f98298;fill-opacity:0.39647576;stroke:#f98298;stroke-width:0.66801172" />
    <path
       d="m 767.14912,418.58465 c -12.77269,26.91389 7.29868,32.3879 7.98293,34.21257 0.68426,1.82467 3.87743,-7.75485 4.3336,-11.63227 0.45617,-3.87743 1.82467,16.8782 1.82467,16.8782 0,0 17.79054,-8.89527 8.4391,-21.89605 -9.35144,-13.00078 -22.5803,-17.56245 -22.5803,-17.56245 z"
       id="path4341"
       inkscape:connector-curvature="0"
       style="fill:#f98298;fill-opacity:0.39647576;stroke:#f98298;stroke-width:0.66801172" />
    <path
       style="fill:#f98298;fill-opacity:0.39647576;stroke:#f98298;stroke-width:0.66801172"
       inkscape:connector-curvature="0"
       id="path4343"
       d="m 269.30273,19.76368 c 24.86114,22.12413 40.827,4.78976 40.827,4.78976 0,0 -10.26377,-9.35144 -10.26377,-9.35144 0,0 12.54461,-7.07059 12.54461,-7.07059 0,0 -5.47401,-6.38635 -14.59736,-4.78976 -9.12336,1.59658 -28.51048,16.42203 -28.51048,16.42203 z" />
    <path
       style="fill:#f98298;fill-opacity:0.39647576;stroke:#f98298;stroke-width:0.66801172"
       inkscape:connector-curvature="0"
       id="path4345"
       d="m 744.89931,387.00649 c 23.03647,35.80917 53.59971,23.03647 46.07294,7.98294 -7.52677,-15.05353 -46.07294,-7.98294 -46.07294,-7.98294 z" />
    <path
       style="fill:#f98298;fill-opacity:0.39647576;stroke:#f98298;stroke-width:0.66801172"
       inkscape:connector-curvature="0"
       id="path4347"
       d="m 601.39273,489.40835 c 16.65012,32.15982 45.38868,18.24671 49.95036,9.35144 4.56168,-8.89527 -7.0706,-12.08845 -13.91312,-12.08845 -6.84251,0 -36.03724,2.73701 -36.03724,2.73701 z" />
    <path
       style="fill:#f98298;fill-opacity:0.39647576;stroke:#f98298;stroke-width:0.66801172"
       inkscape:connector-curvature="0"
       id="path4349"
       d="m 758.0627,548.52704 c -12.7727,26.91389 7.29868,32.3879 7.98293,34.21257 0.68426,1.82467 3.87743,-7.75485 4.3336,-11.63227 0.45616,-3.87743 1.82467,16.8782 1.82467,16.8782 0,0 17.79054,-8.89527 8.4391,-21.89605 -9.35144,-13.00078 -22.5803,-17.56245 -22.5803,-17.56245 z" />
    <path
       d="m 737.30273,525.76368 c 24.86113,22.12413 40.827,4.78976 40.827,4.78976 0,0 -10.26377,-9.35144 -10.26377,-9.35144 0,0 12.54461,-7.07059 12.54461,-7.07059 0,0 -5.47401,-6.38635 -14.59736,-4.78976 -9.12336,1.59658 -28.51048,16.42203 -28.51048,16.42203 z"
       id="path4351"
       inkscape:connector-curvature="0"
       style="fill:#f98298;fill-opacity:0.39647576;stroke:#f98298;stroke-width:0.66801172" />
    <path
       d="m 730.89931,479.00649 c 23.03647,35.80917 53.59971,23.03647 46.07294,7.98294 -7.52677,-15.05353 -46.07294,-7.98294 -46.07294,-7.98294 z"
       id="path4353"
       inkscape:connector-curvature="0"
       style="fill:#f98298;fill-opacity:0.39647576;stroke:#f98298;stroke-width:0.66801172" />
    <path
       d="m 13.553224,449.65115 c 16.65012,32.15982 45.38868,18.24671 49.95036,9.35144 4.56168,-8.89527 -7.0706,-12.08845 -13.91311,-12.08845 -6.84252,0 -36.03725,2.73701 -36.03725,2.73701 z"
       id="path4355"
       inkscape:connector-curvature="0"
       style="fill:#f98298;fill-opacity:0.39647576;stroke:#f98298;stroke-width:0.66801172" />
    <path
       d="m 250.64706,498.12375 c -12.77269,26.91389 7.29868,32.3879 7.98293,34.21257 0.68426,1.82467 3.87743,-7.75485 4.3336,-11.63227 0.45617,-3.87743 1.82467,16.8782 1.82467,16.8782 0,0 17.79054,-8.89527 8.4391,-21.89605 -9.35144,-13.00078 -22.5803,-17.56245 -22.5803,-17.56245 z"
       id="path4357"
       inkscape:connector-curvature="0"
       style="fill:#f98298;fill-opacity:0.39647576;stroke:#f98298;stroke-width:0.66801172" />
  </g>
  <g
     inkscape:groupmode="layer"
     id="layer2"
     inkscape:label="caja"
     style="display:inline"
     sodipodi:insensitive="true">
    <g
       id="g4022">
      <path
         sodipodi:nodetypes="cccc"
         inkscape:connector-curvature="0"
         id="path3958"
         d="m 423.55561,22.843564 361.26221,216.429286 -766.968942,0 L 385.77784,23.954674"
         inkscape:transform-center-y="-35.330796"
         style="fill:none;stroke:#552200;stroke-width:15;stroke-linecap:round;stroke-linejoin:round;stroke-miterlimit:4;stroke-opacity:1;stroke-dashoffset:0" />
      <rect
         y="242.54851"
         x="16.992952"
         height="336.45856"
         width="768.68073"
         id="rect3176"
         style="fill:#803300;fill-opacity:1;fill-rule:nonzero;stroke:#552200;stroke-width:15;stroke-linecap:round;stroke-linejoin:round;stroke-miterlimit:4;stroke-opacity:1;stroke-dasharray:none;stroke-dashoffset:0" />
    </g>
  </g>
  <g
     inkscape:groupmode="layer"
     id="layer3"
     inkscape:label="gato"
     style="display:inline"
     sodipodi:insensitive="true">
    <g
       id="g4026">
      <path
         sodipodi:nodetypes="cccc"
         inkscape:connector-curvature="0"
         id="path3970"
         d="m 329.08249,97.88907 -130.1691,74.52263 43.30883,-57.96762 z"
         inkscape:transform-center-y="-17.055646"
         style="fill:#ffffff;stroke:#000000;stroke-width:2;stroke-linecap:round;stroke-linejoin:round;stroke-miterlimit:4;stroke-opacity:1;stroke-dashoffset:0" />
      <path
         style="fill:#1a1a1a;stroke:#000000;stroke-width:2;stroke-linecap:round;stroke-linejoin:round;stroke-miterlimit:4;stroke-opacity:1;stroke-dashoffset:0"
         inkscape:transform-center-y="-17.055646"
         d="m 275.74916,156.77796 -77.14853,15.71193 43.62159,-58.04581 c 20.38789,5.92263 27.28295,23.8389 33.52694,42.33388 z"
         id="path3973"
         inkscape:connector-curvature="0"
         sodipodi:nodetypes="cccc" />
      <path
         style="fill:#ffffff;stroke:#000000;stroke-width:2;stroke-linecap:round;stroke-linejoin:round;stroke-miterlimit:4;stroke-opacity:1;stroke-dashoffset:0"
         inkscape:transform-center-y="-17.055648"
         d="M 484.06762,100.74188 614.76973,174.4117 571.4609,116.44408 z"
         id="path3975"
         inkscape:connector-curvature="0"
         sodipodi:nodetypes="cccc" />
      <path
         sodipodi:nodetypes="cccc"
         inkscape:connector-curvature="0"
         id="path3977"
         d="m 537.93397,158.77796 77.14852,15.71193 -43.62159,-58.04581 c -19.53965,8.88379 -26.4991,25.63021 -33.52693,42.33388 z"
         inkscape:transform-center-y="-17.055647"
         style="fill:#1a1a1a;stroke:#000000;stroke-width:2;stroke-linecap:round;stroke-linejoin:round;stroke-miterlimit:4;stroke-opacity:1;stroke-dashoffset:0" />
      <path
         sodipodi:nodetypes="sccs"
         inkscape:connector-curvature="0"
         id="path3965"
         d="M 627.11731,230.61561 C 614.53568,240.5067 229.372,245.02738 191.29241,231.72764 174.79363,214.30687 186.73162,98.4004 404.08215,89.81238 624.25772,105.52345 644.21356,217.17535 627.11731,230.61561 z"
         inkscape:transform-center-y="-28.285953"
         style="fill:#ffffff;stroke:#000000;stroke-width:2.99324632;stroke-linecap:round;stroke-linejoin:round;stroke-miterlimit:4;stroke-opacity:1;stroke-dashoffset:0" />
      <path
         transform="matrix(0.55120036,0,0,0.55120036,358.3059,169.8169)"
         inkscape:transform-center-y="2.7729585"
         d="m 75.555558,63.456409 -17.427097,-30.184615 34.854192,-10e-7 z"
         inkscape:randomized="0"
         inkscape:rounded="0"
         inkscape:flatsided="true"
         sodipodi:arg2="2.6179939"
         sodipodi:arg1="1.5707963"
         sodipodi:r2="10.061539"
         sodipodi:r1="20.123077"
         sodipodi:cy="43.333332"
         sodipodi:cx="75.555557"
         sodipodi:sides="3"
         id="path3979"
         style="fill:#000000;fill-opacity:1;fill-rule:nonzero;stroke:#000000;stroke-width:2;stroke-linecap:round;stroke-linejoin:round;stroke-miterlimit:4;stroke-opacity:1;stroke-dasharray:none;stroke-dashoffset:0"
         sodipodi:type="star" />
      <path
         sodipodi:nodetypes="csc"
         inkscape:connector-curvature="0"
         id="path3983"
         d="m 461.6629,228.15579 c -6.2099,9.40268 -22.09177,11.63094 -34.88407,10.77095 -18.11278,-1.21766 -25.96552,-15.73537 -27.17701,-40.21695"
         style="fill:none;stroke:#000000;stroke-width:2;stroke-linecap:round;stroke-linejoin:round;stroke-miterlimit:4;stroke-opacity:1;stroke-dasharray:none;stroke-dashoffset:0" />
      <path
         sodipodi:nodetypes="csc"
         inkscape:connector-curvature="0"
         id="path3992"
         d="m 382.55819,171.15579 c -4.53544,-18.98857 -27.51483,-31.4498 -51.32589,-27.83292 -23.81107,3.61687 -39.43705,21.9422 -34.90161,40.93077"
         style="fill:none;stroke:#000000;stroke-width:5;stroke-linecap:round;stroke-linejoin:round;stroke-miterlimit:4;stroke-opacity:1;stroke-dasharray:none;stroke-dashoffset:0" />
      <path
         style="fill:none;stroke:#000000;stroke-width:5;stroke-linecap:round;stroke-linejoin:round;stroke-miterlimit:4;stroke-opacity:1;stroke-dasharray:none;stroke-dashoffset:0"
         d="m 411.54752,171.15579 c 4.53544,-18.98857 27.51483,-31.4498 51.32589,-27.83292 23.81107,3.61687 39.43705,21.9422 34.90161,40.93077"
         id="path3995"
         inkscape:connector-curvature="0"
         sodipodi:nodetypes="csc" />
      <path
         style="fill:none;stroke:#000000;stroke-width:2;stroke-linecap:round;stroke-linejoin:round;stroke-miterlimit:4;stroke-opacity:1;stroke-dasharray:none;stroke-dashoffset:0"
         d="m 338.18635,228.79346 c 6.2099,9.40268 22.09177,11.63094 34.88407,10.77095 18.11278,-1.21766 25.96552,-15.73537 27.17701,-40.21695"
         id="path3997"
         inkscape:connector-curvature="0"
         sodipodi:nodetypes="csc" />
      <path
         style="fill:#aa4400;stroke:none"
         inkscape:transform-center-y="5.1537254"
         d="m 441.92378,95.34647 c -2.46271,-5.53194 -74.12646,-7.36379 -80.87849,-0.73749 -3.00609,3.17408 -4.38294,18.25083 38.36323,19.08987 43.26088,-2.37876 44.12672,-14.7326 42.51526,-18.35238 z"
         id="path3999"
         inkscape:connector-curvature="0"
         sodipodi:nodetypes="sccs" />
      <path
         style="fill:none;stroke:#000000;stroke-width:2.99324632;stroke-linecap:round;stroke-linejoin:round;stroke-miterlimit:4;stroke-opacity:1;stroke-dashoffset:0"
         inkscape:transform-center-y="-28.285953"
         d="M 627.11731,230.61561 C 614.53568,240.5067 229.372,245.02738 191.29241,231.72764 174.79363,214.30687 186.73162,98.4004 404.08215,89.81238 624.25772,105.52345 644.21356,217.17535 627.11731,230.61561 z"
         id="path4001"
         inkscape:connector-curvature="0"
         sodipodi:nodetypes="sccs" />
    </g>
  </g>
  <g
     id="layer1"
     inkscape:label="palabras"
     inkscape:groupmode="layer"
     style="display:inline">
    <text
       xml:space="preserve"
       style="font-size:25px;font-style:normal;font-variant:normal;font-weight:normal;font-stretch:normal;text-align:center;line-height:125%;letter-spacing:0px;word-spacing:0px;writing-mode:lr-tb;text-anchor:middle;fill:#000000;fill-opacity:1;stroke:none;display:inline;font-family:Droid Sans Japanese;-inkscape-font-specification:Droid Sans Japanese"
       x="134.82608"
       y="34.166183"
       id="text4045"
       sodipodi:linespacing="125%"><tspan
         sodipodi:role="line"
         id="tspan4057"
         x="134.82608"
         y="34.166183">Contador de</tspan><tspan
         sodipodi:role="line"
         id="tspan4059"
         x="134.82608"
         y="65.416183">animales pequeos</tspan></text>
    <text
       xml:space="preserve"
       style="font-size:28px;font-style:normal;font-variant:normal;font-weight:normal;font-stretch:normal;text-align:center;line-height:125%;letter-spacing:0px;word-spacing:0px;writing-mode:lr-tb;text-anchor:middle;fill:#ffffff;fill-opacity:1;stroke:none;display:inline;font-family:Sans;-inkscape-font-specification:Sans"
       x="85.937187"
       y="283.72174"
       id="text3035"
       sodipodi:linespacing="125%"><tspan
         sodipodi:role="line"
         id="tspan3219"
         x="85.937187"
         y="283.72174">1</tspan><tspan
         sodipodi:role="line"
         id="tspan3221"
         x="85.937187"
         y="321.60867"></tspan><tspan
         sodipodi:role="line"
         id="tspan3223"
         x="85.937187"
         y="359.50903"></tspan><tspan
         sodipodi:role="line"
         id="tspan3225"
         x="85.937187"
         y="391.62213">ippiki</tspan></text>
    <text
       sodipodi:linespacing="125%"
       id="text3227"
       y="283.72174"
       x="190.15594"
       style="font-size:28px;font-style:normal;font-variant:normal;font-weight:normal;font-stretch:normal;text-align:center;line-height:125%;letter-spacing:0px;word-spacing:0px;writing-mode:lr-tb;text-anchor:middle;fill:#ffffff;fill-opacity:1;stroke:none;display:inline;font-family:Sans;-inkscape-font-specification:Sans"
       xml:space="preserve"><tspan
         sodipodi:role="line"
         id="tspan3317"
         x="190.15594"
         y="283.72174">2</tspan><tspan
         sodipodi:role="line"
         id="tspan3319"
         x="190.15594"
         y="321.60867"></tspan><tspan
         sodipodi:role="line"
         id="tspan3321"
         x="190.15594"
         y="359.50903"></tspan><tspan
         sodipodi:role="line"
         id="tspan3323"
         x="190.15594"
         y="391.62213">nihiki</tspan></text>
    <text
       sodipodi:linespacing="125%"
       id="text3237"
       y="285.72174"
       x="300.23114"
       style="font-size:28px;font-style:normal;font-variant:normal;font-weight:normal;font-stretch:normal;text-align:center;line-height:125%;letter-spacing:0px;word-spacing:0px;writing-mode:lr-tb;text-anchor:middle;fill:#ffffff;fill-opacity:1;stroke:none;display:inline;font-family:Sans;-inkscape-font-specification:Sans"
       xml:space="preserve"><tspan
         sodipodi:role="line"
         id="tspan3325"
         x="300.23114"
         y="285.72174">3</tspan><tspan
         sodipodi:role="line"
         id="tspan3327"
         x="300.23114"
         y="323.60867"></tspan><tspan
         sodipodi:role="line"
         id="tspan3329"
         x="300.23114"
         y="361.50903"></tspan><tspan
         sodipodi:role="line"
         id="tspan3331"
         x="300.23114"
         y="393.62213">sanbiki</tspan></text>
    <text
       xml:space="preserve"
       style="font-size:28px;font-style:normal;font-variant:normal;font-weight:normal;font-stretch:normal;text-align:center;line-height:125%;letter-spacing:0px;word-spacing:0px;writing-mode:lr-tb;text-anchor:middle;fill:#ffffff;fill-opacity:1;stroke:none;display:inline;font-family:Sans;-inkscape-font-specification:Sans"
       x="426.48407"
       y="285.72174"
       id="text3247"
       sodipodi:linespacing="125%"><tspan
         sodipodi:role="line"
         id="tspan3333"
         x="426.48407"
         y="285.72174">4</tspan><tspan
         sodipodi:role="line"
         id="tspan3335"
         x="426.48407"
         y="323.60867"></tspan><tspan
         sodipodi:role="line"
         id="tspan3337"
         x="426.48407"
         y="361.50903"></tspan><tspan
         sodipodi:role="line"
         id="tspan3339"
         x="426.48407"
         y="393.62213">yonhiki</tspan></text>
    <text
       sodipodi:linespacing="125%"
       id="text3257"
       y="285.72174"
       x="543.93719"
       style="font-size:28px;font-style:normal;font-variant:normal;font-weight:normal;font-stretch:normal;text-align:center;line-height:125%;letter-spacing:0px;word-spacing:0px;writing-mode:lr-tb;text-anchor:middle;fill:#ffffff;fill-opacity:1;stroke:none;display:inline;font-family:Sans;-inkscape-font-specification:Sans"
       xml:space="preserve"><tspan
         sodipodi:role="line"
         id="tspan3341"
         x="543.93719"
         y="285.72174">5</tspan><tspan
         sodipodi:role="line"
         id="tspan3343"
         x="543.93719"
         y="323.60867"></tspan><tspan
         sodipodi:role="line"
         id="tspan3345"
         x="543.93719"
         y="361.50903"></tspan><tspan
         sodipodi:role="line"
         id="tspan3347"
         x="543.93719"
         y="393.62213">gohiki</tspan></text>
    <text
       sodipodi:linespacing="125%"
       id="text3267"
       y="283.72174"
       x="657.93719"
       style="font-size:28px;font-style:normal;font-variant:normal;font-weight:normal;font-stretch:normal;text-align:center;line-height:125%;letter-spacing:0px;word-spacing:0px;writing-mode:lr-tb;text-anchor:middle;fill:#ffffff;fill-opacity:1;stroke:none;display:inline;font-family:Sans;-inkscape-font-specification:Sans"
       xml:space="preserve"><tspan
         sodipodi:role="line"
         id="tspan3389"
         x="657.93719"
         y="283.72174">6</tspan><tspan
         sodipodi:role="line"
         id="tspan3391"
         x="657.93719"
         y="321.60867"></tspan><tspan
         sodipodi:role="line"
         id="tspan3393"
         x="657.93719"
         y="359.50903"></tspan><tspan
         sodipodi:role="line"
         id="tspan3395"
         x="657.93719"
         y="391.62213">roppiki</tspan></text>
    <text
       xml:space="preserve"
       style="font-size:28px;font-style:normal;font-variant:normal;font-weight:normal;font-stretch:normal;text-align:center;line-height:125%;letter-spacing:0px;word-spacing:0px;writing-mode:lr-tb;text-anchor:middle;fill:#ffffff;fill-opacity:1;stroke:none;display:inline;font-family:Sans;-inkscape-font-specification:Sans"
       x="95.937187"
       y="447.72174"
       id="text3277"
       sodipodi:linespacing="125%"><tspan
         sodipodi:role="line"
         id="tspan3357"
         x="95.937187"
         y="447.72174">7</tspan><tspan
         sodipodi:role="line"
         id="tspan3359"
         x="95.937187"
         y="485.60867"></tspan><tspan
         sodipodi:role="line"
         id="tspan3361"
         x="95.937187"
         y="523.50903"></tspan><tspan
         sodipodi:role="line"
         id="tspan3363"
         x="95.937187"
         y="555.62213">nanahiki</tspan></text>
    <text
       xml:space="preserve"
       style="font-size:28px;font-style:normal;font-variant:normal;font-weight:normal;font-stretch:normal;text-align:center;line-height:125%;letter-spacing:0px;word-spacing:0px;writing-mode:lr-tb;text-anchor:middle;fill:#ffffff;fill-opacity:1;stroke:none;display:inline;font-family:Sans;-inkscape-font-specification:Sans"
       x="233.93719"
       y="443.72174"
       id="text3287"
       sodipodi:linespacing="125%"><tspan
         sodipodi:role="line"
         id="tspan3365"
         x="233.93719"
         y="443.72174">8</tspan><tspan
         sodipodi:role="line"
         id="tspan3367"
         x="233.93719"
         y="481.60867"></tspan><tspan
         sodipodi:role="line"
         id="tspan3369"
         x="233.93719"
         y="519.50903"></tspan><tspan
         sodipodi:role="line"
         id="tspan3371"
         x="233.93719"
         y="551.62213">happiki</tspan></text>
    <text
       sodipodi:linespacing="125%"
       id="text3297"
       y="443.72174"
       x="369.93719"
       style="font-size:28px;font-style:normal;font-variant:normal;font-weight:normal;font-stretch:normal;text-align:center;line-height:125%;letter-spacing:0px;word-spacing:0px;writing-mode:lr-tb;text-anchor:middle;fill:#ffffff;fill-opacity:1;stroke:none;display:inline;font-family:Sans;-inkscape-font-specification:Sans"
       xml:space="preserve"><tspan
         sodipodi:role="line"
         id="tspan3373"
         x="369.93719"
         y="443.72174">9</tspan><tspan
         sodipodi:role="line"
         id="tspan3375"
         x="369.93719"
         y="481.60867"></tspan><tspan
         sodipodi:role="line"
         id="tspan3377"
         x="369.93719"
         y="519.50903"></tspan><tspan
         sodipodi:role="line"
         id="tspan3379"
         x="369.93719"
         y="551.62213">kyuuhiki</tspan></text>
    <text
       xml:space="preserve"
       style="font-size:28px;font-style:normal;font-variant:normal;font-weight:normal;font-stretch:normal;text-align:center;line-height:125%;letter-spacing:0px;word-spacing:0px;writing-mode:lr-tb;text-anchor:middle;fill:#ffffff;fill-opacity:1;stroke:none;display:inline;font-family:Sans;-inkscape-font-specification:Sans"
       x="501.93719"
       y="443.72174"
       id="text3307"
       sodipodi:linespacing="125%"><tspan
         sodipodi:role="line"
         id="tspan3381"
         x="501.93719"
         y="443.72174">10</tspan><tspan
         sodipodi:role="line"
         id="tspan3383"
         x="501.93719"
         y="481.60867"></tspan><tspan
         sodipodi:role="line"
         id="tspan3385"
         x="501.93719"
         y="519.50903"></tspan><tspan
         sodipodi:role="line"
         id="tspan3387"
         x="501.93719"
         y="551.62213">jippiki</tspan></text>
    <text
       xml:space="preserve"
       style="font-size:25px;font-style:normal;font-variant:normal;font-weight:normal;font-stretch:normal;text-align:center;line-height:125%;letter-spacing:0px;word-spacing:0px;writing-mode:lr-tb;text-anchor:middle;fill:#000000;fill-opacity:1;stroke:none;display:inline;font-family:Sans;-inkscape-font-specification:Sans"
       x="709.0329"
       y="56.177437"
       id="text3397"
       sodipodi:linespacing="125%"><tspan
         sodipodi:role="line"
         id="tspan3407"
         x="709.0329"
         y="56.177437"></tspan><tspan
         sodipodi:role="line"
         id="tspan3409"
         x="709.0329"
         y="87.427437"></tspan><tspan
         sodipodi:role="line"
         id="tspan3411"
         x="709.0329"
         y="118.67744"></tspan></text>
    <text
       sodipodi:linespacing="125%"
       id="text3440"
       y="450.61063"
       x="701.04828"
       style="font-size:28px;font-style:normal;font-variant:normal;font-weight:normal;font-stretch:normal;text-align:center;line-height:125%;letter-spacing:0px;word-spacing:0px;writing-mode:lr-tb;text-anchor:middle;fill:#ffffff;fill-opacity:1;stroke:none;display:inline;font-family:Sans;-inkscape-font-specification:Sans"
       xml:space="preserve"><tspan
         sodipodi:role="line"
         id="tspan3450"
         x="701.04828"
         y="450.61063"></tspan><tspan
         sodipodi:role="line"
         id="tspan3452"
         x="701.04828"
         y="488.51102"></tspan><tspan
         sodipodi:role="line"
         id="tspan3454"
         x="701.04828"
         y="520.62408">nanbiki</tspan><tspan
         sodipodi:role="line"
         id="tspan3456"
         x="701.04828"
         y="555.62408">cuantos?</tspan></text>
    <rect
       style="fill:none;stroke:#000000;stroke-width:2;stroke-miterlimit:4;stroke-opacity:1;stroke-dasharray:none"
       id="rect3458"
       width="144.37427"
       height="148.81871"
       x="627.81287"
       y="418.92395"
       ry="14.76827" />
  </g>
</svg>
